G04*
G04 #@! TF.GenerationSoftware,Altium Limited,Altium Designer,25.4.2 (15)*
G04*
G04 Layer_Color=65535*
%FSLAX44Y44*%
%MOMM*%
G71*
G04*
G04 #@! TF.SameCoordinates,0B5DAD5C-0C0E-4793-B882-C7F6C3490101*
G04*
G04*
G04 #@! TF.FilePolarity,Positive*
G04*
G01*
G75*
%ADD10C,0.1270*%
%ADD11C,0.2000*%
%ADD12C,0.1000*%
%ADD13C,0.0889*%
%ADD14C,0.2540*%
%ADD15C,0.1524*%
%ADD16C,0.0762*%
G36*
X538761Y364353D02*
X535110Y368004D01*
X542412D01*
X538761Y364353D01*
D02*
G37*
D10*
X584355Y342256D02*
G03*
X584355Y342256I-635J0D01*
G01*
X608230Y370830D02*
G03*
X608230Y370830I-635J0D01*
G01*
X534021Y349494D02*
G03*
X534021Y349494I-500J0D01*
G01*
X403479Y358140D02*
G03*
X403479Y358140I-635J0D01*
G01*
X315595Y312166D02*
G03*
X315595Y312166I-635J0D01*
G01*
X365434Y367538D02*
X371434D01*
Y379238D01*
X350434Y392938D02*
X356434D01*
X350434Y381238D02*
Y392938D01*
X403270Y266820D02*
X412070D01*
X403270Y281820D02*
X412070D01*
X629680Y353825D02*
Y358210D01*
X625295Y353825D02*
X629680D01*
X610910Y368210D02*
Y372595D01*
X615295D01*
X285678Y366454D02*
Y386054D01*
X269678Y366454D02*
Y386054D01*
X485678Y341428D02*
X495778D01*
X485678Y284428D02*
X495778D01*
D11*
X397934Y387238D02*
G03*
X397934Y387238I-1000J0D01*
G01*
X278678Y348754D02*
G03*
X278678Y348754I-1000J0D01*
G01*
X489748Y358748D02*
G03*
X489748Y358748I-1000J0D01*
G01*
X513228Y288928D02*
G03*
X513228Y288928I-1000J0D01*
G01*
X541191Y339782D02*
X543041D01*
X541191Y337932D02*
Y339782D01*
Y300280D02*
X543041D01*
X541191D02*
Y302130D01*
X590689Y300280D02*
Y302130D01*
X588839Y300280D02*
X590689D01*
X588839Y339780D02*
X590689D01*
Y332930D02*
Y339780D01*
D12*
X373626Y268605D02*
G03*
X373626Y268605I-500J0D01*
G01*
X535110Y368004D02*
X542761D01*
X538761Y364004D02*
Y368004D01*
X535110D02*
X538761Y364004D01*
X542761Y368004D01*
D13*
X390906Y362582D02*
Y381886D01*
Y362582D02*
X401066D01*
Y381886D01*
X390906D02*
X401066D01*
X420370Y362712D02*
Y382016D01*
Y362712D02*
X430530D01*
Y382016D01*
X420370D02*
X430530D01*
X620803Y336794D02*
X640107D01*
Y346954D01*
X620803D02*
X640107D01*
X620803Y336794D02*
Y346954D01*
X456438Y333248D02*
X466598D01*
X456438D02*
Y352552D01*
X466598D01*
Y333248D02*
Y352552D01*
X571273Y270884D02*
Y290188D01*
X561113D02*
X571273D01*
X561113Y270884D02*
Y290188D01*
Y270884D02*
X571273D01*
X561367D02*
Y290188D01*
X551207D02*
X561367D01*
X551207Y270884D02*
Y290188D01*
Y270884D02*
X561367D01*
X633503Y354066D02*
Y373370D01*
Y354066D02*
X643663D01*
Y373370D01*
X633503D02*
X643663D01*
X624359Y383530D02*
X643663D01*
X624359Y373370D02*
Y383530D01*
Y373370D02*
X643663D01*
Y383530D01*
X594106Y371348D02*
X604266D01*
Y352044D02*
Y371348D01*
X594106Y352044D02*
X604266D01*
X594106D02*
Y371348D01*
X438150Y264160D02*
Y283464D01*
X427990D02*
X438150D01*
X427990Y264160D02*
Y283464D01*
Y264160D02*
X438150D01*
X387096Y265684D02*
Y284988D01*
X376936D02*
X387096D01*
X376936Y265684D02*
Y284988D01*
Y265684D02*
X387096D01*
X428244Y314071D02*
X466344D01*
Y333121D01*
X428244D02*
X466344D01*
X428244Y314071D02*
Y333121D01*
Y313944D02*
X447548D01*
X428244Y303784D02*
Y313944D01*
Y303784D02*
X447548D01*
Y313944D01*
X437134Y333300D02*
Y352604D01*
Y333300D02*
X447294D01*
Y352604D01*
X437134D02*
X447294D01*
X446786Y333248D02*
Y352552D01*
Y333248D02*
X456946D01*
Y352552D01*
X446786D02*
X456946D01*
X544710Y352034D02*
Y380205D01*
X532830D02*
X544710D01*
X532830Y352034D02*
Y380205D01*
Y352034D02*
X544710D01*
X584429Y352034D02*
Y371338D01*
Y352034D02*
X594589D01*
Y371338D01*
X584429D02*
X594589D01*
X574523Y352034D02*
Y371338D01*
Y352034D02*
X584683D01*
Y371338D01*
X574523D02*
X584683D01*
X564617Y352034D02*
Y371338D01*
Y352034D02*
X574777D01*
Y371338D01*
X564617D02*
X574777D01*
X554711Y352034D02*
Y371338D01*
Y352034D02*
X564871D01*
Y371338D01*
X554711D02*
X564871D01*
X522759Y371266D02*
X532919D01*
Y351962D02*
Y371266D01*
X522759Y351962D02*
X532919D01*
X522759D02*
Y371266D01*
X544603Y352034D02*
Y371338D01*
Y352034D02*
X554763D01*
Y371338D01*
X544603D02*
X554763D01*
X328676Y288798D02*
X347980D01*
Y298958D01*
X328676D02*
X347980D01*
X328676Y288798D02*
Y298958D01*
Y298450D02*
X347980D01*
Y308610D01*
X328676D02*
X347980D01*
X328676Y298450D02*
Y308610D01*
Y328676D02*
X347980D01*
Y338836D01*
X328676D02*
X347980D01*
X328676Y328676D02*
Y338836D01*
Y338328D02*
X347980D01*
Y348488D01*
X328676D02*
X347980D01*
X328676Y338328D02*
Y348488D01*
X581179Y270884D02*
Y290188D01*
X571019D02*
X581179D01*
X571019Y270884D02*
Y290188D01*
Y270884D02*
X581179D01*
X600583Y262722D02*
X613083D01*
Y290222D01*
X600583D02*
X613083D01*
X600583Y262722D02*
Y290222D01*
X600737Y270884D02*
Y290188D01*
X590577D02*
X600737D01*
X590577Y270884D02*
Y290188D01*
Y270884D02*
X600737D01*
X590831D02*
Y290188D01*
X580671D02*
X590831D01*
X580671Y270884D02*
Y290188D01*
Y270884D02*
X590831D01*
X640361Y286502D02*
Y305806D01*
X630201D02*
X640361D01*
X630201Y286502D02*
Y305806D01*
Y286502D02*
X640361D01*
X630709D02*
Y305806D01*
X620549D02*
X630709D01*
X620549Y286502D02*
Y305806D01*
Y286502D02*
X630709D01*
X620803Y336540D02*
X640107D01*
X620803Y326380D02*
Y336540D01*
Y326380D02*
X640107D01*
Y336540D01*
X620803Y326380D02*
X640107D01*
X620803Y316220D02*
Y326380D01*
Y316220D02*
X640107D01*
Y326380D01*
X620803Y316220D02*
X640107D01*
X620803Y306060D02*
Y316220D01*
Y306060D02*
X640107D01*
Y316220D01*
X483362Y281868D02*
X493522D01*
Y262564D02*
Y281868D01*
X483362Y262564D02*
X493522D01*
X483362D02*
Y281868D01*
X493014D02*
X503174D01*
Y262564D02*
Y281868D01*
X493014Y262564D02*
X503174D01*
X493014D02*
Y281868D01*
X473456D02*
X483616D01*
Y262564D02*
Y281868D01*
X473456Y262564D02*
X483616D01*
X473456D02*
Y281868D01*
X473964Y262564D02*
Y281868D01*
X463804D02*
X473964D01*
X463804Y262564D02*
Y281868D01*
Y262564D02*
X473964D01*
X464312D02*
Y281868D01*
X454152D02*
X464312D01*
X454152Y262564D02*
Y281868D01*
Y262564D02*
X464312D01*
X512572Y352044D02*
Y371348D01*
X502412D02*
X512572D01*
X502412Y352044D02*
Y371348D01*
Y352044D02*
X512572D01*
X473676Y343508D02*
Y356008D01*
Y343508D02*
X501176D01*
Y356008D01*
X473676D02*
X501176D01*
X456132Y362712D02*
Y382016D01*
Y362712D02*
X466292D01*
Y382016D01*
X456132D02*
X466292D01*
X465784Y362712D02*
Y382016D01*
Y362712D02*
X475944D01*
Y382016D01*
X465784D02*
X475944D01*
X532926Y371194D02*
Y383694D01*
X505426D02*
X532926D01*
X505426Y371194D02*
Y383694D01*
Y371194D02*
X532926D01*
X522732Y352044D02*
Y371348D01*
X512572D02*
X522732D01*
X512572Y352044D02*
Y371348D01*
Y352044D02*
X522732D01*
X541301Y270884D02*
X551461D01*
X541301D02*
Y290188D01*
X551461D01*
Y270884D02*
Y290188D01*
X531395Y270884D02*
X541555D01*
X531395D02*
Y290188D01*
X541555D01*
Y270884D02*
Y290188D01*
X521489Y270884D02*
X531649D01*
X521489D02*
Y290188D01*
X531649D01*
Y270884D02*
Y290188D01*
X521743Y306568D02*
X531903D01*
X521743D02*
Y325872D01*
X531903D01*
Y306568D02*
Y325872D01*
X521743Y345248D02*
X531903D01*
Y325944D02*
Y345248D01*
X521743Y325944D02*
X531903D01*
X521743D02*
Y345248D01*
X428244Y304038D02*
X447548D01*
X428244Y293878D02*
Y304038D01*
Y293878D02*
X447548D01*
Y304038D01*
X427990Y293878D02*
X447294D01*
X427990Y283718D02*
Y293878D01*
Y283718D02*
X447294D01*
Y293878D01*
X400558Y362582D02*
Y381886D01*
Y362582D02*
X410718D01*
Y381886D01*
X400558D02*
X410718D01*
X410464Y362582D02*
Y381886D01*
Y362582D02*
X420624D01*
Y381886D01*
X410464D02*
X420624D01*
X427482Y333248D02*
Y352552D01*
Y333248D02*
X437642D01*
Y352552D01*
X427482D02*
X437642D01*
D14*
X647727Y315712D02*
X679731D01*
Y398389D01*
X647727Y315712D02*
Y398389D01*
Y398516D02*
X679731D01*
X647981Y316982D02*
X679985D01*
X647981Y259578D02*
Y316982D01*
X679985Y259578D02*
Y316982D01*
X647981Y259578D02*
X679985D01*
D15*
X410845Y347471D02*
Y350901D01*
X359283Y347471D02*
Y350901D01*
Y299339D02*
X362713D01*
X410845D02*
Y302769D01*
X407415Y350901D02*
X410845D01*
X359283D02*
X362713D01*
X359283Y299339D02*
Y302769D01*
X407415Y299339D02*
X410845D01*
D16*
X312285Y314578D02*
Y325495D01*
Y314578D02*
X329315D01*
Y325495D01*
X312285D02*
X329315D01*
M02*
