G04*
G04 #@! TF.GenerationSoftware,Altium Limited,Altium Designer,25.4.2 (15)*
G04*
G04 Layer_Color=8388736*
%FSLAX44Y44*%
%MOMM*%
G71*
G04*
G04 #@! TF.SameCoordinates,0B5DAD5C-0C0E-4793-B882-C7F6C3490101*
G04*
G04*
G04 #@! TF.FilePolarity,Negative*
G04*
G01*
G75*
%ADD17R,0.6200X0.6200*%
%ADD18R,0.6000X0.2400*%
%ADD19R,0.2400X0.6000*%
%ADD20R,3.0000X0.6500*%
%ADD21R,1.1000X1.9000*%
%ADD22R,0.6200X0.6200*%
%ADD23C,0.2450*%
%ADD24R,1.2700X1.3970*%
%ADD25R,0.5000X0.5000*%
%ADD26R,0.5000X0.5000*%
%ADD27R,1.6000X0.8000*%
%ADD28R,0.8000X0.8000*%
%ADD29R,0.9300X1.0100*%
%ADD30R,0.7000X0.7000*%
%ADD31R,0.3000X0.8128*%
%ADD32R,0.8128X0.3000*%
%ADD34R,0.4000X0.5000*%
%ADD35R,0.2032X0.2032*%
%ADD36R,0.7500X0.3500*%
%ADD37R,1.0100X0.9300*%
%ADD38R,3.0500X2.0500*%
%ADD39R,3.2004X3.2004*%
%ADD40C,1.3700*%
%ADD41R,1.3700X1.3700*%
G36*
X309026Y290790D02*
X309407D01*
Y290713D01*
X309635D01*
Y290637D01*
X309788D01*
Y290561D01*
X309940D01*
Y290485D01*
X310092D01*
Y290409D01*
X310168D01*
Y290333D01*
X310320D01*
Y290257D01*
X310397D01*
Y290180D01*
X310473D01*
Y290104D01*
X310549D01*
Y290028D01*
X310701D01*
Y289952D01*
X310777D01*
Y289876D01*
X310853D01*
Y289724D01*
X310930D01*
Y289648D01*
X311006D01*
Y289571D01*
X311082D01*
Y289495D01*
X311158D01*
Y289343D01*
X311234D01*
Y289191D01*
X311082D01*
Y289115D01*
X310930D01*
Y289039D01*
X310777D01*
Y288962D01*
X310625D01*
Y288886D01*
X310473D01*
Y288810D01*
X310320D01*
Y288734D01*
X310168D01*
Y288658D01*
X310016D01*
Y288582D01*
X309864D01*
Y288506D01*
X309711D01*
Y288430D01*
X309559D01*
Y288353D01*
X309483D01*
Y288277D01*
X309331D01*
Y288430D01*
X309255D01*
Y288506D01*
X309179D01*
Y288582D01*
X309102D01*
Y288658D01*
X309026D01*
Y288734D01*
X308950D01*
Y288810D01*
X308874D01*
Y288886D01*
X308646D01*
Y288962D01*
X308493D01*
Y289039D01*
X307808D01*
Y288962D01*
X307580D01*
Y288886D01*
X307351D01*
Y288810D01*
X307199D01*
Y288734D01*
X307123D01*
Y288658D01*
X307047D01*
Y288582D01*
X306971D01*
Y288506D01*
X306895D01*
Y288353D01*
X306819D01*
Y288201D01*
X306742D01*
Y288049D01*
X306666D01*
Y287744D01*
X306590D01*
Y287135D01*
X306666D01*
Y286679D01*
X306742D01*
Y286374D01*
X306819D01*
Y286146D01*
X306895D01*
Y285917D01*
X306971D01*
Y285689D01*
X307047D01*
Y285537D01*
X307123D01*
Y285384D01*
X307199D01*
Y285232D01*
X307275D01*
Y285156D01*
X307351D01*
Y285004D01*
X307428D01*
Y284928D01*
X307504D01*
Y284851D01*
X307580D01*
Y284775D01*
X307732D01*
Y284699D01*
X307884D01*
Y284623D01*
X308265D01*
Y284547D01*
X308417D01*
Y284623D01*
X308874D01*
Y284699D01*
X309102D01*
Y284775D01*
X309255D01*
Y284851D01*
X309331D01*
Y284928D01*
X309483D01*
Y285004D01*
X309559D01*
Y285080D01*
X309635D01*
Y285232D01*
X309711D01*
Y285384D01*
X309788D01*
Y285537D01*
X309864D01*
Y285917D01*
X309940D01*
Y286450D01*
X311539D01*
Y286374D01*
X312071D01*
Y285689D01*
X311995D01*
Y285308D01*
X311919D01*
Y285004D01*
X311843D01*
Y284851D01*
X311767D01*
Y284623D01*
X311691D01*
Y284547D01*
X311615D01*
Y284395D01*
X311539D01*
Y284319D01*
X311462D01*
Y284166D01*
X311386D01*
Y284090D01*
X311310D01*
Y284014D01*
X311234D01*
Y283938D01*
X311158D01*
Y283862D01*
X311082D01*
Y283786D01*
X311006D01*
Y283710D01*
X310930D01*
Y283633D01*
X310853D01*
Y283557D01*
X310701D01*
Y283481D01*
X310549D01*
Y283405D01*
X310397D01*
Y283329D01*
X310320D01*
Y283253D01*
X310092D01*
Y283177D01*
X309940D01*
Y283100D01*
X309711D01*
Y283024D01*
X309483D01*
Y282948D01*
X309102D01*
Y282872D01*
X308722D01*
Y282796D01*
X307199D01*
Y282872D01*
X306895D01*
Y282948D01*
X306666D01*
Y283024D01*
X306514D01*
Y283100D01*
X306362D01*
Y283177D01*
X306286D01*
Y283253D01*
X306133D01*
Y283329D01*
X306057D01*
Y283405D01*
X305905D01*
Y283481D01*
X305829D01*
Y283557D01*
X305753D01*
Y283633D01*
X305677D01*
Y283710D01*
X305600D01*
Y283786D01*
X305524D01*
Y283862D01*
X305448D01*
Y283938D01*
X305372D01*
Y284014D01*
X305296D01*
Y284090D01*
X305220D01*
Y284242D01*
X305144D01*
Y284319D01*
X305068D01*
Y284471D01*
X304991D01*
Y284623D01*
X304915D01*
Y284775D01*
X304839D01*
Y284928D01*
X304763D01*
Y285080D01*
X304687D01*
Y285308D01*
X304611D01*
Y285537D01*
X304535D01*
Y285765D01*
X304459D01*
Y286070D01*
X304382D01*
Y286450D01*
X304306D01*
Y287897D01*
X304382D01*
Y288201D01*
X304459D01*
Y288430D01*
X304535D01*
Y288658D01*
X304611D01*
Y288810D01*
X304687D01*
Y288962D01*
X304763D01*
Y289115D01*
X304839D01*
Y289191D01*
X304915D01*
Y289267D01*
X304991D01*
Y289419D01*
X305068D01*
Y289495D01*
X305144D01*
Y289571D01*
X305220D01*
Y289648D01*
X305296D01*
Y289724D01*
X305372D01*
Y289800D01*
X305524D01*
Y289876D01*
X305600D01*
Y289952D01*
X305677D01*
Y290028D01*
X305829D01*
Y290104D01*
X305905D01*
Y290180D01*
X306057D01*
Y290257D01*
X306210D01*
Y290333D01*
X306362D01*
Y290409D01*
X306590D01*
Y290485D01*
X306742D01*
Y290561D01*
X306971D01*
Y290637D01*
X307275D01*
Y290713D01*
X307580D01*
Y290790D01*
X308113D01*
Y290866D01*
X309026D01*
Y290790D01*
D02*
G37*
G36*
X301109Y288734D02*
X301413D01*
Y288658D01*
X301642D01*
Y288582D01*
X301794D01*
Y288506D01*
X301946D01*
Y288430D01*
X302022D01*
Y288353D01*
X302099D01*
Y288277D01*
X302175D01*
Y288201D01*
X302251D01*
Y288125D01*
X302327D01*
Y288049D01*
X302403D01*
Y287973D01*
X302479D01*
Y287897D01*
X302555D01*
Y287744D01*
X302631D01*
Y287592D01*
X302708D01*
Y287440D01*
X302784D01*
Y287364D01*
X302860D01*
Y287211D01*
X302784D01*
Y287135D01*
X302479D01*
Y287059D01*
X302251D01*
Y286983D01*
X302022D01*
Y286907D01*
X301794D01*
Y286831D01*
X301566D01*
Y286755D01*
X301337D01*
Y286679D01*
X301109D01*
Y286602D01*
X300880D01*
Y286526D01*
X300728D01*
Y286679D01*
X300652D01*
Y286755D01*
X300576D01*
Y286907D01*
X300500D01*
Y286983D01*
X300424D01*
Y287059D01*
X300348D01*
Y287135D01*
X300195D01*
Y287211D01*
X299891D01*
Y287288D01*
X299586D01*
Y287211D01*
X299206D01*
Y287135D01*
X299053D01*
Y287059D01*
X298901D01*
Y286983D01*
X298825D01*
Y286907D01*
X298749D01*
Y286755D01*
X298673D01*
Y286298D01*
X298749D01*
Y286222D01*
X298825D01*
Y286146D01*
X298901D01*
Y286070D01*
X299130D01*
Y285993D01*
X301870D01*
Y285917D01*
X302251D01*
Y285841D01*
X302479D01*
Y285765D01*
X302708D01*
Y285689D01*
X302860D01*
Y285613D01*
X303012D01*
Y285537D01*
X303088D01*
Y285460D01*
X303164D01*
Y285384D01*
X303241D01*
Y285308D01*
X303393D01*
Y285156D01*
X303469D01*
Y285080D01*
X303545D01*
Y285004D01*
X303621D01*
Y284851D01*
X303697D01*
Y284699D01*
X303773D01*
Y284547D01*
X303850D01*
Y284242D01*
X303926D01*
Y283100D01*
X303850D01*
Y282872D01*
X303773D01*
Y282644D01*
X303697D01*
Y282491D01*
X303621D01*
Y282415D01*
X303545D01*
Y282263D01*
X303469D01*
Y282187D01*
X303393D01*
Y282035D01*
X303317D01*
Y281959D01*
X303241D01*
Y281882D01*
X303164D01*
Y281806D01*
X303088D01*
Y281730D01*
X302936D01*
Y281654D01*
X302860D01*
Y281578D01*
X302784D01*
Y281502D01*
X302631D01*
Y281426D01*
X302479D01*
Y281350D01*
X302403D01*
Y281273D01*
X302175D01*
Y281197D01*
X302022D01*
Y281121D01*
X301794D01*
Y281045D01*
X301566D01*
Y280969D01*
X301337D01*
Y280893D01*
X301033D01*
Y280817D01*
X300728D01*
Y280741D01*
X300348D01*
Y280664D01*
X298977D01*
Y280741D01*
X298673D01*
Y280817D01*
X298520D01*
Y280893D01*
X298368D01*
Y280969D01*
X298292D01*
Y281045D01*
X298140D01*
Y281121D01*
X298064D01*
Y281197D01*
X297987D01*
Y281273D01*
X297911D01*
Y281350D01*
X297835D01*
Y281426D01*
X297759D01*
Y281502D01*
X297683D01*
Y281578D01*
X297607D01*
Y281654D01*
X297531D01*
Y281730D01*
X297455D01*
Y281882D01*
X297379D01*
Y281959D01*
X297302D01*
Y282111D01*
X297226D01*
Y282263D01*
X297150D01*
Y282491D01*
X297074D01*
Y282644D01*
X297302D01*
Y282720D01*
X297531D01*
Y282796D01*
X297759D01*
Y282872D01*
X298064D01*
Y282948D01*
X298292D01*
Y283024D01*
X298520D01*
Y283100D01*
X298825D01*
Y283177D01*
X299053D01*
Y283253D01*
X299282D01*
Y283100D01*
X299358D01*
Y282948D01*
X299434D01*
Y282796D01*
X299510D01*
Y282720D01*
X299586D01*
Y282644D01*
X299662D01*
Y282568D01*
X299739D01*
Y282491D01*
X299815D01*
Y282415D01*
X300043D01*
Y282339D01*
X300348D01*
Y282263D01*
X300576D01*
Y282339D01*
X300957D01*
Y282415D01*
X301185D01*
Y282491D01*
X301337D01*
Y282568D01*
X301413D01*
Y282644D01*
X301490D01*
Y282720D01*
X301566D01*
Y282796D01*
X301642D01*
Y282872D01*
X301718D01*
Y283177D01*
X301794D01*
Y283329D01*
X301718D01*
Y283557D01*
X301642D01*
Y283633D01*
X301566D01*
Y283710D01*
X301490D01*
Y283786D01*
X301413D01*
Y283862D01*
X301261D01*
Y283938D01*
X300957D01*
Y284014D01*
X298825D01*
Y284090D01*
X298292D01*
Y284166D01*
X298064D01*
Y284242D01*
X297835D01*
Y284319D01*
X297607D01*
Y284395D01*
X297455D01*
Y284471D01*
X297379D01*
Y284547D01*
X297302D01*
Y284623D01*
X297226D01*
Y284699D01*
X297074D01*
Y284851D01*
X296998D01*
Y284928D01*
X296922D01*
Y285004D01*
X296846D01*
Y285156D01*
X296770D01*
Y285308D01*
X296693D01*
Y285460D01*
X296617D01*
Y285765D01*
X296541D01*
Y286450D01*
X296617D01*
Y286755D01*
X296693D01*
Y286983D01*
X296770D01*
Y287135D01*
X296846D01*
Y287288D01*
X296922D01*
Y287364D01*
X296998D01*
Y287440D01*
X297074D01*
Y287516D01*
X297150D01*
Y287592D01*
X297226D01*
Y287668D01*
X297302D01*
Y287744D01*
X297379D01*
Y287820D01*
X297455D01*
Y287897D01*
X297531D01*
Y287973D01*
X297683D01*
Y288049D01*
X297759D01*
Y288125D01*
X297911D01*
Y288201D01*
X298064D01*
Y288277D01*
X298292D01*
Y288353D01*
X298444D01*
Y288430D01*
X298673D01*
Y288506D01*
X298901D01*
Y288582D01*
X299206D01*
Y288658D01*
X299510D01*
Y288734D01*
X299967D01*
Y288810D01*
X301109D01*
Y288734D01*
D02*
G37*
G36*
X294486Y287059D02*
X294562D01*
Y286907D01*
X294638D01*
Y286755D01*
X294714D01*
Y286602D01*
X294790D01*
Y286526D01*
X294866D01*
Y286374D01*
X294942D01*
Y286222D01*
X295019D01*
Y286070D01*
X295095D01*
Y285917D01*
X295171D01*
Y285765D01*
X294942D01*
Y285689D01*
X294638D01*
Y285613D01*
X294410D01*
Y285537D01*
X294105D01*
Y285460D01*
X293877D01*
Y285384D01*
X293496D01*
Y285308D01*
X293267D01*
Y285232D01*
X292963D01*
Y285156D01*
X292659D01*
Y285080D01*
X292354D01*
Y285004D01*
X292050D01*
Y284928D01*
X291745D01*
Y284851D01*
X291440D01*
Y284775D01*
X291364D01*
Y284547D01*
X291440D01*
Y284242D01*
X291517D01*
Y283938D01*
X291593D01*
Y283633D01*
X291973D01*
Y283710D01*
X292278D01*
Y283786D01*
X292582D01*
Y283862D01*
X292811D01*
Y283938D01*
X293039D01*
Y284014D01*
X293420D01*
Y284090D01*
X293648D01*
Y284166D01*
X294029D01*
Y284242D01*
X294257D01*
Y284319D01*
X294638D01*
Y284395D01*
X294866D01*
Y284471D01*
X295171D01*
Y284547D01*
X295247D01*
Y284319D01*
X295323D01*
Y283786D01*
X295399D01*
Y283253D01*
X295475D01*
Y282948D01*
X295247D01*
Y282872D01*
X294942D01*
Y282796D01*
X294638D01*
Y282720D01*
X294410D01*
Y282644D01*
X294105D01*
Y282568D01*
X293801D01*
Y282491D01*
X293496D01*
Y282415D01*
X293267D01*
Y282339D01*
X292887D01*
Y282263D01*
X292659D01*
Y282187D01*
X292430D01*
Y282111D01*
X292050D01*
Y281806D01*
X292126D01*
Y281578D01*
X292202D01*
Y281273D01*
X292278D01*
Y281045D01*
X292354D01*
Y280664D01*
X292430D01*
Y280588D01*
X292582D01*
Y280664D01*
X292887D01*
Y280741D01*
X293115D01*
Y280817D01*
X293420D01*
Y280893D01*
X293648D01*
Y280969D01*
X294029D01*
Y281045D01*
X294257D01*
Y281121D01*
X294638D01*
Y281197D01*
X294866D01*
Y281273D01*
X295171D01*
Y281350D01*
X295475D01*
Y281426D01*
X295704D01*
Y281502D01*
X296008D01*
Y281578D01*
X296313D01*
Y281654D01*
X296617D01*
Y281350D01*
X296693D01*
Y280817D01*
X296770D01*
Y280208D01*
X296846D01*
Y279903D01*
X296541D01*
Y279827D01*
X296084D01*
Y279751D01*
X295628D01*
Y279675D01*
X295171D01*
Y279599D01*
X294714D01*
Y279522D01*
X294410D01*
Y279446D01*
X294029D01*
Y279370D01*
X293724D01*
Y279294D01*
X293420D01*
Y279218D01*
X293115D01*
Y279142D01*
X292887D01*
Y279066D01*
X292659D01*
Y278990D01*
X292354D01*
Y278913D01*
X292202D01*
Y278837D01*
X291897D01*
Y278761D01*
X291669D01*
Y278685D01*
X291440D01*
Y278609D01*
X291212D01*
Y278533D01*
X291060D01*
Y278457D01*
X290831D01*
Y278380D01*
X290679D01*
Y278304D01*
X290527D01*
Y278380D01*
X290451D01*
Y278457D01*
X290527D01*
Y278533D01*
X290451D01*
Y279218D01*
X290375D01*
Y279751D01*
X290299D01*
Y280208D01*
X290222D01*
Y280664D01*
X290146D01*
Y281045D01*
X290070D01*
Y281350D01*
X289994D01*
Y281654D01*
X289918D01*
Y282035D01*
X289842D01*
Y282339D01*
X289766D01*
Y282644D01*
X289690D01*
Y282872D01*
X289613D01*
Y283100D01*
X289537D01*
Y283329D01*
X289461D01*
Y283633D01*
X289385D01*
Y283862D01*
X289309D01*
Y284090D01*
X289233D01*
Y284242D01*
X289157D01*
Y284471D01*
X289080D01*
Y284699D01*
X289004D01*
Y284851D01*
X288928D01*
Y285080D01*
X288852D01*
Y285308D01*
X288776D01*
Y285460D01*
X288700D01*
Y285613D01*
X288624D01*
Y285841D01*
X288928D01*
Y285917D01*
X289157D01*
Y285993D01*
X289537D01*
Y286070D01*
X289842D01*
Y286146D01*
X290146D01*
Y286222D01*
X290451D01*
Y286298D01*
X290831D01*
Y286374D01*
X291136D01*
Y286450D01*
X291440D01*
Y286526D01*
X291821D01*
Y286602D01*
X292126D01*
Y286679D01*
X292354D01*
Y286755D01*
X292659D01*
Y286831D01*
X293039D01*
Y286907D01*
X293496D01*
Y286983D01*
X293801D01*
Y287059D01*
X294105D01*
Y287135D01*
X294486D01*
Y287059D01*
D02*
G37*
G36*
X282838Y294215D02*
X282914D01*
Y294063D01*
X282990D01*
Y293911D01*
X283066D01*
Y293835D01*
X283142D01*
Y293682D01*
X283218D01*
Y293606D01*
X283295D01*
Y293454D01*
X283371D01*
Y293378D01*
X283447D01*
Y293226D01*
X283523D01*
Y293150D01*
X283599D01*
Y292997D01*
X283675D01*
Y292845D01*
X283751D01*
Y292693D01*
X283828D01*
Y292617D01*
X283904D01*
Y292464D01*
X283980D01*
Y292388D01*
X284056D01*
Y292236D01*
X284132D01*
Y292084D01*
X284208D01*
Y292008D01*
X284284D01*
Y291855D01*
X284361D01*
Y291703D01*
X284437D01*
Y291551D01*
X284513D01*
Y291399D01*
X284589D01*
Y291322D01*
X284665D01*
Y291170D01*
X284741D01*
Y291018D01*
X284817D01*
Y290866D01*
X284893D01*
Y290713D01*
X284970D01*
Y290561D01*
X285046D01*
Y290409D01*
X285122D01*
Y290257D01*
X285198D01*
Y290104D01*
X285274D01*
Y289952D01*
X285350D01*
Y289800D01*
X285426D01*
Y289648D01*
X285502D01*
Y289495D01*
X285578D01*
Y289343D01*
X285655D01*
Y289191D01*
X285731D01*
Y288962D01*
X285807D01*
Y288810D01*
X285883D01*
Y288658D01*
X285959D01*
Y288506D01*
X286035D01*
Y288277D01*
X286111D01*
Y288125D01*
X286188D01*
Y287897D01*
X286264D01*
Y287744D01*
X286340D01*
Y287592D01*
X286416D01*
Y287364D01*
X286492D01*
Y287135D01*
X286568D01*
Y286983D01*
X286644D01*
Y286755D01*
X286721D01*
Y286526D01*
X286797D01*
Y286298D01*
X286873D01*
Y286070D01*
X286949D01*
Y285841D01*
X287025D01*
Y285613D01*
X287101D01*
Y285308D01*
X287177D01*
Y285080D01*
X287253D01*
Y284851D01*
X287330D01*
Y284547D01*
X287406D01*
Y284319D01*
X287482D01*
Y283938D01*
X287558D01*
Y283710D01*
X287634D01*
Y283329D01*
X287710D01*
Y283024D01*
X287786D01*
Y282720D01*
X287862D01*
Y282339D01*
X287938D01*
Y281959D01*
X288015D01*
Y281578D01*
X288091D01*
Y281045D01*
X288167D01*
Y280588D01*
X288243D01*
Y280055D01*
X288319D01*
Y279370D01*
X288395D01*
Y278457D01*
X288471D01*
Y277391D01*
X288548D01*
Y274955D01*
X288624D01*
Y275031D01*
X288776D01*
Y275107D01*
X288852D01*
Y275183D01*
X289080D01*
Y275259D01*
X289233D01*
Y275335D01*
X289385D01*
Y275411D01*
X289537D01*
Y275488D01*
X289690D01*
Y275564D01*
X289842D01*
Y275640D01*
X289994D01*
Y275716D01*
X290222D01*
Y275792D01*
X290375D01*
Y275868D01*
X290527D01*
Y275944D01*
X290755D01*
Y276021D01*
X290907D01*
Y276097D01*
X291060D01*
Y276173D01*
X291288D01*
Y276249D01*
X291517D01*
Y276325D01*
X291669D01*
Y276401D01*
X291973D01*
Y276477D01*
X292126D01*
Y276553D01*
X292354D01*
Y276630D01*
X292582D01*
Y276706D01*
X292887D01*
Y276782D01*
X293039D01*
Y276858D01*
X293420D01*
Y276934D01*
X293648D01*
Y277010D01*
X293877D01*
Y277086D01*
X294181D01*
Y277162D01*
X294486D01*
Y277239D01*
X294790D01*
Y277315D01*
X295171D01*
Y277391D01*
X295475D01*
Y277467D01*
X295932D01*
Y277543D01*
X296313D01*
Y277619D01*
X296846D01*
Y277695D01*
X297302D01*
Y277771D01*
X298140D01*
Y277848D01*
X298901D01*
Y277924D01*
X303241D01*
Y277848D01*
X304154D01*
Y277771D01*
X303773D01*
Y277695D01*
X303241D01*
Y277619D01*
X302708D01*
Y277543D01*
X302251D01*
Y277467D01*
X301794D01*
Y277391D01*
X301413D01*
Y277315D01*
X301033D01*
Y277239D01*
X300652D01*
Y277162D01*
X300348D01*
Y277086D01*
X299967D01*
Y277010D01*
X299662D01*
Y276934D01*
X299358D01*
Y276858D01*
X299053D01*
Y276782D01*
X298749D01*
Y276706D01*
X298444D01*
Y276630D01*
X298140D01*
Y276553D01*
X297911D01*
Y276477D01*
X297607D01*
Y276401D01*
X297379D01*
Y276325D01*
X297150D01*
Y276249D01*
X296846D01*
Y276173D01*
X296617D01*
Y276097D01*
X296389D01*
Y276021D01*
X296160D01*
Y275944D01*
X295932D01*
Y275868D01*
X295704D01*
Y275792D01*
X295475D01*
Y275716D01*
X295247D01*
Y275640D01*
X295095D01*
Y275564D01*
X294866D01*
Y275488D01*
X294638D01*
Y275411D01*
X294410D01*
Y275335D01*
X294257D01*
Y275259D01*
X294029D01*
Y275183D01*
X293877D01*
Y275107D01*
X293648D01*
Y275031D01*
X293496D01*
Y274955D01*
X293267D01*
Y274879D01*
X293115D01*
Y274802D01*
X292887D01*
Y274726D01*
X292735D01*
Y274650D01*
X292582D01*
Y274574D01*
X292354D01*
Y274498D01*
X292202D01*
Y274422D01*
X292050D01*
Y274346D01*
X291897D01*
Y274270D01*
X291745D01*
Y274193D01*
X291593D01*
Y274117D01*
X291364D01*
Y274041D01*
X291212D01*
Y273965D01*
X291060D01*
Y273889D01*
X290907D01*
Y273813D01*
X290755D01*
Y273737D01*
X290603D01*
Y273661D01*
X290451D01*
Y273584D01*
X290299D01*
Y273508D01*
X290146D01*
Y273432D01*
X289994D01*
Y273356D01*
X289842D01*
Y273280D01*
X289690D01*
Y273204D01*
X289537D01*
Y273128D01*
X289385D01*
Y273051D01*
X289233D01*
Y272975D01*
X289080D01*
Y272899D01*
X289004D01*
Y272823D01*
X288852D01*
Y272747D01*
X288700D01*
Y272671D01*
X288548D01*
Y272595D01*
X288395D01*
Y272519D01*
X288243D01*
Y272442D01*
X288167D01*
Y272366D01*
X288015D01*
Y272290D01*
X287862D01*
Y272214D01*
X287786D01*
Y272138D01*
X287634D01*
Y272062D01*
X287482D01*
Y271986D01*
X287406D01*
Y271910D01*
X287253D01*
Y271833D01*
X287101D01*
Y271757D01*
X286949D01*
Y271681D01*
X286873D01*
Y271605D01*
X286721D01*
Y271529D01*
X286644D01*
Y271453D01*
X286492D01*
Y271377D01*
X286416D01*
Y271300D01*
X286340D01*
Y273737D01*
X286264D01*
Y275944D01*
X286188D01*
Y277239D01*
X286111D01*
Y278304D01*
X286035D01*
Y279142D01*
X285959D01*
Y279979D01*
X285883D01*
Y280588D01*
X285807D01*
Y281273D01*
X285731D01*
Y281806D01*
X285655D01*
Y282415D01*
X285578D01*
Y282872D01*
X285502D01*
Y283405D01*
X285426D01*
Y283862D01*
X285350D01*
Y284319D01*
X285274D01*
Y284775D01*
X285198D01*
Y285156D01*
X285122D01*
Y285537D01*
X285046D01*
Y285917D01*
X284970D01*
Y286374D01*
X284893D01*
Y286679D01*
X284817D01*
Y287059D01*
X284741D01*
Y287364D01*
X284665D01*
Y287744D01*
X284589D01*
Y288049D01*
X284513D01*
Y288353D01*
X284437D01*
Y288734D01*
X284361D01*
Y289039D01*
X284284D01*
Y289343D01*
X284208D01*
Y289571D01*
X284132D01*
Y289876D01*
X284056D01*
Y290180D01*
X283980D01*
Y290485D01*
X283904D01*
Y290713D01*
X283828D01*
Y291018D01*
X283751D01*
Y291246D01*
X283675D01*
Y291551D01*
X283599D01*
Y291779D01*
X283523D01*
Y292008D01*
X283447D01*
Y292312D01*
X283371D01*
Y292540D01*
X283295D01*
Y292769D01*
X283218D01*
Y292997D01*
X283142D01*
Y293226D01*
X283066D01*
Y293454D01*
X282990D01*
Y293682D01*
X282914D01*
Y293911D01*
X282838D01*
Y294139D01*
X282762D01*
Y294291D01*
X282838D01*
Y294215D01*
D02*
G37*
G36*
X306133Y275868D02*
X306057D01*
Y275792D01*
X305981D01*
Y275716D01*
X305905D01*
Y275640D01*
X305829D01*
Y275564D01*
X305753D01*
Y275411D01*
X305600D01*
Y275335D01*
X305524D01*
Y275259D01*
X305448D01*
Y275183D01*
X305372D01*
Y275107D01*
X305296D01*
Y275031D01*
X305220D01*
Y274955D01*
X305144D01*
Y274879D01*
X305068D01*
Y274802D01*
X304991D01*
Y274726D01*
X304915D01*
Y274650D01*
X304763D01*
Y274574D01*
X304687D01*
Y274498D01*
X304611D01*
Y274422D01*
X304459D01*
Y274346D01*
X304382D01*
Y274270D01*
X304306D01*
Y274193D01*
X304230D01*
Y274117D01*
X304078D01*
Y274041D01*
X304002D01*
Y273965D01*
X303850D01*
Y273889D01*
X303773D01*
Y273813D01*
X303697D01*
Y273737D01*
X303545D01*
Y273661D01*
X303469D01*
Y273584D01*
X303393D01*
Y273508D01*
X303241D01*
Y273432D01*
X303164D01*
Y273356D01*
X303012D01*
Y273280D01*
X302860D01*
Y273204D01*
X302784D01*
Y273128D01*
X302631D01*
Y273051D01*
X302479D01*
Y272975D01*
X302403D01*
Y272899D01*
X302251D01*
Y272823D01*
X302099D01*
Y272747D01*
X301946D01*
Y272671D01*
X301870D01*
Y272595D01*
X301718D01*
Y272519D01*
X301566D01*
Y272442D01*
X301413D01*
Y272366D01*
X301261D01*
Y272290D01*
X301109D01*
Y272214D01*
X300957D01*
Y272138D01*
X300804D01*
Y272062D01*
X300652D01*
Y271986D01*
X300500D01*
Y271910D01*
X300348D01*
Y271833D01*
X300195D01*
Y271757D01*
X299967D01*
Y271681D01*
X299815D01*
Y271605D01*
X299662D01*
Y271529D01*
X299510D01*
Y271453D01*
X299282D01*
Y271377D01*
X299130D01*
Y271300D01*
X298977D01*
Y271224D01*
X298749D01*
Y271148D01*
X298597D01*
Y271072D01*
X298368D01*
Y270996D01*
X298140D01*
Y270920D01*
X297987D01*
Y270844D01*
X297759D01*
Y270768D01*
X297607D01*
Y270691D01*
X297379D01*
Y270615D01*
X297150D01*
Y270539D01*
X296922D01*
Y270463D01*
X296693D01*
Y270387D01*
X296465D01*
Y270311D01*
X296237D01*
Y270235D01*
X296008D01*
Y270159D01*
X295780D01*
Y270082D01*
X295475D01*
Y270006D01*
X295247D01*
Y269930D01*
X294942D01*
Y269854D01*
X294714D01*
Y269778D01*
X294410D01*
Y269702D01*
X294105D01*
Y269626D01*
X293801D01*
Y269550D01*
X293496D01*
Y269473D01*
X293191D01*
Y269397D01*
X292811D01*
Y269321D01*
X292506D01*
Y269245D01*
X292126D01*
Y269169D01*
X291745D01*
Y269093D01*
X291288D01*
Y269017D01*
X290831D01*
Y268941D01*
X290375D01*
Y268864D01*
X289842D01*
Y268788D01*
X289233D01*
Y268712D01*
X288471D01*
Y268636D01*
X287330D01*
Y268560D01*
X285198D01*
Y268636D01*
X284284D01*
Y268712D01*
X283675D01*
Y268788D01*
X283295D01*
Y268864D01*
X282914D01*
Y268941D01*
X282686D01*
Y269017D01*
X282381D01*
Y269093D01*
X282229D01*
Y269169D01*
X282001D01*
Y269245D01*
X281848D01*
Y269321D01*
X281620D01*
Y269397D01*
X281467D01*
Y269473D01*
X281391D01*
Y269550D01*
X281239D01*
Y269626D01*
X281163D01*
Y269702D01*
X281011D01*
Y269778D01*
X280935D01*
Y269854D01*
X280858D01*
Y269930D01*
X280782D01*
Y270006D01*
X280706D01*
Y270082D01*
X280630D01*
Y270159D01*
X280554D01*
Y270235D01*
X280478D01*
Y270387D01*
X281087D01*
Y270463D01*
X282533D01*
Y270539D01*
X283751D01*
Y270615D01*
X284893D01*
Y270691D01*
X285959D01*
Y270768D01*
X286949D01*
Y270844D01*
X287634D01*
Y270920D01*
X288395D01*
Y270996D01*
X289080D01*
Y271072D01*
X289690D01*
Y271148D01*
X290299D01*
Y271224D01*
X290831D01*
Y271300D01*
X291288D01*
Y271377D01*
X291745D01*
Y271453D01*
X292202D01*
Y271529D01*
X292582D01*
Y271605D01*
X293039D01*
Y271681D01*
X293344D01*
Y271757D01*
X293724D01*
Y271833D01*
X294105D01*
Y271910D01*
X294410D01*
Y271986D01*
X294714D01*
Y272062D01*
X295095D01*
Y272138D01*
X295323D01*
Y272214D01*
X295628D01*
Y272290D01*
X295932D01*
Y272366D01*
X296237D01*
Y272442D01*
X296465D01*
Y272519D01*
X296693D01*
Y272595D01*
X296998D01*
Y272671D01*
X297226D01*
Y272747D01*
X297455D01*
Y272823D01*
X297759D01*
Y272899D01*
X297987D01*
Y272975D01*
X298216D01*
Y273051D01*
X298444D01*
Y273128D01*
X298673D01*
Y273204D01*
X298901D01*
Y273280D01*
X299130D01*
Y273356D01*
X299358D01*
Y273432D01*
X299586D01*
Y273508D01*
X299815D01*
Y273584D01*
X300043D01*
Y273661D01*
X300271D01*
Y273737D01*
X300500D01*
Y273813D01*
X300652D01*
Y273889D01*
X300880D01*
Y273965D01*
X301109D01*
Y274041D01*
X301261D01*
Y274117D01*
X301490D01*
Y274193D01*
X301718D01*
Y274270D01*
X301870D01*
Y274346D01*
X302099D01*
Y274422D01*
X302327D01*
Y274498D01*
X302479D01*
Y274574D01*
X302708D01*
Y274650D01*
X302936D01*
Y274726D01*
X303088D01*
Y274802D01*
X303317D01*
Y274879D01*
X303469D01*
Y274955D01*
X303697D01*
Y275031D01*
X303926D01*
Y275107D01*
X304078D01*
Y275183D01*
X304230D01*
Y275259D01*
X304459D01*
Y275335D01*
X304687D01*
Y275411D01*
X304839D01*
Y275488D01*
X305068D01*
Y275564D01*
X305220D01*
Y275640D01*
X305372D01*
Y275716D01*
X305600D01*
Y275792D01*
X305829D01*
Y275868D01*
X305981D01*
Y275944D01*
X306133D01*
Y275868D01*
D02*
G37*
G36*
X496298Y373848D02*
X495998D01*
X494198Y375648D01*
Y377448D01*
X496298D01*
Y373848D01*
D02*
G37*
G36*
X489798Y375648D02*
X487998Y373848D01*
X487698D01*
Y377448D01*
X489798D01*
Y375648D01*
D02*
G37*
G36*
X495392Y371348D02*
X491998Y367954D01*
X488604Y371348D01*
X491998Y374742D01*
X495392Y371348D01*
D02*
G37*
G36*
X496298Y365248D02*
X494198D01*
Y367048D01*
X495998Y368848D01*
X496298D01*
Y365248D01*
D02*
G37*
G36*
X489798Y367048D02*
Y365248D01*
X487698D01*
Y368848D01*
X487998D01*
X489798Y367048D01*
D02*
G37*
G36*
X581189Y329573D02*
Y324280D01*
X581199Y324183D01*
X581227Y324089D01*
X581273Y324002D01*
X581336Y323927D01*
X581411Y323865D01*
X581498Y323818D01*
X581592Y323790D01*
X581689Y323780D01*
X589732D01*
X590439Y323073D01*
Y322487D01*
X589732Y321780D01*
X585689D01*
X585592Y321771D01*
X585498Y321742D01*
X585411Y321696D01*
X585336Y321634D01*
X585273Y321558D01*
X585227Y321472D01*
X585199Y321378D01*
X585189Y321280D01*
Y318780D01*
X585199Y318683D01*
X585227Y318589D01*
X585273Y318503D01*
X585336Y318427D01*
X585411Y318365D01*
X585498Y318318D01*
X585592Y318290D01*
X585689Y318280D01*
X589732D01*
X590439Y317573D01*
Y316987D01*
X589732Y316280D01*
X581689D01*
X581592Y316271D01*
X581498Y316242D01*
X581411Y316196D01*
X581336Y316134D01*
X581273Y316058D01*
X581227Y315972D01*
X581199Y315878D01*
X581189Y315780D01*
Y310487D01*
X580482Y309780D01*
X551396D01*
X550689Y310487D01*
Y315780D01*
X550680Y315878D01*
X550651Y315972D01*
X550605Y316058D01*
X550543Y316134D01*
X550467Y316196D01*
X550381Y316242D01*
X550287Y316271D01*
X550189Y316280D01*
X542146D01*
X541439Y316987D01*
Y317573D01*
X542146Y318280D01*
X546189D01*
X546287Y318290D01*
X546381Y318318D01*
X546467Y318365D01*
X546543Y318427D01*
X546605Y318503D01*
X546651Y318589D01*
X546679Y318683D01*
X546689Y318780D01*
Y321280D01*
X546679Y321378D01*
X546651Y321472D01*
X546605Y321558D01*
X546543Y321634D01*
X546467Y321696D01*
X546381Y321742D01*
X546287Y321771D01*
X546189Y321780D01*
X542146D01*
X541439Y322487D01*
Y323073D01*
X542146Y323780D01*
X550189D01*
X550287Y323790D01*
X550381Y323818D01*
X550467Y323865D01*
X550543Y323927D01*
X550605Y324002D01*
X550651Y324089D01*
X550680Y324183D01*
X550689Y324280D01*
Y329573D01*
X551396Y330280D01*
X580482D01*
X581189Y329573D01*
D02*
G37*
D17*
X395986Y367734D02*
D03*
Y376734D02*
D03*
X425450Y367864D02*
D03*
Y376864D02*
D03*
X461518Y338400D02*
D03*
Y347400D02*
D03*
X566193Y285036D02*
D03*
Y276036D02*
D03*
X556287Y285036D02*
D03*
Y276036D02*
D03*
X638583Y359218D02*
D03*
Y368218D02*
D03*
X599186Y366196D02*
D03*
Y357196D02*
D03*
X433070Y278312D02*
D03*
Y269312D02*
D03*
X382016Y279836D02*
D03*
Y270836D02*
D03*
X442214Y338452D02*
D03*
Y347452D02*
D03*
X451866Y338400D02*
D03*
Y347400D02*
D03*
X589509Y357186D02*
D03*
Y366186D02*
D03*
X579603Y357186D02*
D03*
Y366186D02*
D03*
X569697Y357186D02*
D03*
Y366186D02*
D03*
X559791Y357186D02*
D03*
Y366186D02*
D03*
X527839Y366114D02*
D03*
Y357114D02*
D03*
X549683Y357186D02*
D03*
Y366186D02*
D03*
X576099Y285036D02*
D03*
Y276036D02*
D03*
X595657Y285036D02*
D03*
Y276036D02*
D03*
X585751Y285036D02*
D03*
Y276036D02*
D03*
X635281Y300654D02*
D03*
Y291654D02*
D03*
X625629Y300654D02*
D03*
Y291654D02*
D03*
X488442Y276716D02*
D03*
Y267716D02*
D03*
X498094Y276716D02*
D03*
Y267716D02*
D03*
X478536Y276716D02*
D03*
Y267716D02*
D03*
X468884Y276716D02*
D03*
Y267716D02*
D03*
X459232Y276716D02*
D03*
Y267716D02*
D03*
X507492Y366196D02*
D03*
Y357196D02*
D03*
X461212Y367864D02*
D03*
Y376864D02*
D03*
X470864Y367864D02*
D03*
Y376864D02*
D03*
X517652Y366196D02*
D03*
Y357196D02*
D03*
X546381Y276036D02*
D03*
Y285036D02*
D03*
X536475Y276036D02*
D03*
Y285036D02*
D03*
X526569Y276036D02*
D03*
Y285036D02*
D03*
X526823Y311720D02*
D03*
Y320720D02*
D03*
Y340096D02*
D03*
Y331096D02*
D03*
X405638Y367734D02*
D03*
Y376734D02*
D03*
X415544Y367734D02*
D03*
Y376734D02*
D03*
X432562Y338400D02*
D03*
Y347400D02*
D03*
D18*
X587440Y312530D02*
D03*
X544440D02*
D03*
Y327530D02*
D03*
X587440D02*
D03*
D19*
X583439Y303531D02*
D03*
X578439D02*
D03*
X573439D02*
D03*
X568439D02*
D03*
X563439D02*
D03*
X558439D02*
D03*
X553439D02*
D03*
X548439D02*
D03*
Y336531D02*
D03*
X553439D02*
D03*
X558439D02*
D03*
X563439D02*
D03*
X568439D02*
D03*
X573439D02*
D03*
X578439D02*
D03*
X583439D02*
D03*
D20*
X375934Y386588D02*
D03*
X345934Y373888D02*
D03*
D21*
X420170Y274320D02*
D03*
X395170D02*
D03*
D22*
X634955Y341874D02*
D03*
X625955D02*
D03*
X629511Y378450D02*
D03*
X638511D02*
D03*
X433396Y308864D02*
D03*
X442396D02*
D03*
X342828Y293878D02*
D03*
X333828D02*
D03*
X342828Y303530D02*
D03*
X333828D02*
D03*
X342828Y333756D02*
D03*
X333828D02*
D03*
X342828Y343408D02*
D03*
X333828D02*
D03*
X625955Y331460D02*
D03*
X634955D02*
D03*
X625955Y321300D02*
D03*
X634955D02*
D03*
X625955Y311140D02*
D03*
X634955D02*
D03*
X433396Y298958D02*
D03*
X442396D02*
D03*
X433142Y288798D02*
D03*
X442142D02*
D03*
D23*
X625295Y358210D02*
D03*
Y363210D02*
D03*
Y368210D02*
D03*
X620295Y358210D02*
D03*
Y363210D02*
D03*
Y368210D02*
D03*
X615295Y358210D02*
D03*
Y363210D02*
D03*
Y368210D02*
D03*
D24*
X437134Y323596D02*
D03*
X457454D02*
D03*
D25*
X278352Y349940D02*
D03*
Y340940D02*
D03*
X278384Y317572D02*
D03*
Y326572D02*
D03*
D26*
X278456Y333756D02*
D03*
X287456D02*
D03*
D27*
X277678Y393254D02*
D03*
Y359254D02*
D03*
D28*
X538761Y358004D02*
D03*
Y374004D02*
D03*
D29*
X606833Y283562D02*
D03*
Y269382D02*
D03*
D30*
X356446Y268590D02*
D03*
X366946D02*
D03*
Y282590D02*
D03*
X356446D02*
D03*
D31*
X392564Y349885D02*
D03*
X387564D02*
D03*
X382564D02*
D03*
X377564D02*
D03*
X372564D02*
D03*
X367564D02*
D03*
Y300355D02*
D03*
X372564D02*
D03*
X377564D02*
D03*
X382564D02*
D03*
X387564D02*
D03*
X392564D02*
D03*
X397564D02*
D03*
X402564D02*
D03*
X397564Y349885D02*
D03*
X402564D02*
D03*
D32*
X360299Y342620D02*
D03*
Y337620D02*
D03*
Y332620D02*
D03*
Y327620D02*
D03*
Y322620D02*
D03*
Y317620D02*
D03*
Y312620D02*
D03*
Y307620D02*
D03*
X409829D02*
D03*
Y312620D02*
D03*
Y317620D02*
D03*
Y322620D02*
D03*
Y327620D02*
D03*
Y332620D02*
D03*
Y337620D02*
D03*
Y342620D02*
D03*
D34*
X344170Y317500D02*
D03*
X338170D02*
D03*
D35*
X314932D02*
D03*
X320802D02*
D03*
X326672D02*
D03*
Y322580D02*
D03*
X320802D02*
D03*
X314932D02*
D03*
D36*
X478728Y288928D02*
D03*
Y296928D02*
D03*
Y304928D02*
D03*
Y312928D02*
D03*
Y320928D02*
D03*
Y328928D02*
D03*
Y336928D02*
D03*
X502728D02*
D03*
Y328928D02*
D03*
Y320928D02*
D03*
Y312928D02*
D03*
Y304928D02*
D03*
Y296928D02*
D03*
Y288928D02*
D03*
D37*
X494516Y349758D02*
D03*
X480336D02*
D03*
X512086Y377444D02*
D03*
X526266D02*
D03*
D38*
X565939Y320030D02*
D03*
D39*
X385064Y325120D02*
D03*
D40*
X663729Y382514D02*
D03*
Y357114D02*
D03*
X663983Y275580D02*
D03*
D41*
X663729Y331714D02*
D03*
X663983Y300980D02*
D03*
M02*
