G04*
G04 #@! TF.GenerationSoftware,Altium Limited,Altium Designer,25.4.2 (15)*
G04*
G04 Layer_Physical_Order=3*
G04 Layer_Color=128*
%FSLAX44Y44*%
%MOMM*%
G71*
G04*
G04 #@! TF.SameCoordinates,0B5DAD5C-0C0E-4793-B882-C7F6C3490101*
G04*
G04*
G04 #@! TF.FilePolarity,Negative*
G04*
G01*
G75*
%ADD14C,0.2540*%
%ADD46C,1.0160*%
%ADD47C,1.6296*%
G04:AMPARAMS|DCode=48|XSize=2.544mm|YSize=2.544mm|CornerRadius=0mm|HoleSize=0mm|Usage=FLASHONLY|Rotation=0.000|XOffset=0mm|YOffset=0mm|HoleType=Round|Shape=Relief|Width=0.254mm|Gap=0.254mm|Entries=4|*
%AMTHD48*
7,0,0,2.5440,2.0360,0.2540,45*
%
%ADD48THD48*%
%ADD49C,0.8096*%
G36*
X319024Y339090D02*
Y404114D01*
X254000D01*
Y339090D01*
X319024D01*
D02*
G37*
D14*
X492188Y339281D02*
X494792Y341884D01*
X484378Y331470D02*
X486982Y334073D01*
X496062Y316484D02*
X518414Y338836D01*
X486410Y316484D02*
X496062D01*
X483616Y319278D02*
X486410Y316484D01*
X483616Y319278D02*
Y330708D01*
X484378Y331470D01*
X486982Y334073D02*
X492188Y339281D01*
X494792Y341884D02*
Y362458D01*
Y403860D02*
X565150D01*
X494792Y362458D02*
Y403860D01*
X518414Y338836D02*
X626364D01*
X621538D02*
Y403860D01*
Y338836D02*
X683768D01*
D46*
X254000Y254000D02*
X684000D01*
Y404000D01*
X254000D02*
X684000D01*
X254000Y254000D02*
Y404000D01*
D47*
X663729Y357114D02*
D03*
Y331714D02*
D03*
X663983Y275580D02*
D03*
Y300980D02*
D03*
D48*
X663729Y382514D02*
D03*
D49*
X334010Y359918D02*
D03*
X597916Y313690D02*
D03*
X512064Y327660D02*
D03*
X560832Y266192D02*
D03*
X673100Y393700D02*
D03*
Y368300D02*
D03*
X660400Y393700D02*
D03*
Y368300D02*
D03*
X647700Y393700D02*
D03*
X635000D02*
D03*
X622300D02*
D03*
Y266700D02*
D03*
X533400Y393700D02*
D03*
X520700D02*
D03*
X482600D02*
D03*
X469900D02*
D03*
X457200D02*
D03*
X463550Y304800D02*
D03*
X457200Y292100D02*
D03*
X444500Y393700D02*
D03*
X406400Y266700D02*
D03*
X355600Y393700D02*
D03*
X342900D02*
D03*
Y266700D02*
D03*
X330200Y393700D02*
D03*
X336550Y279400D02*
D03*
X330200Y266700D02*
D03*
X323850Y330200D02*
D03*
X317500Y292100D02*
D03*
X323850Y279400D02*
D03*
X317500Y266700D02*
D03*
X311150Y330200D02*
D03*
Y304800D02*
D03*
X304800Y292100D02*
D03*
X311150Y279400D02*
D03*
X304800Y266700D02*
D03*
X298450Y330200D02*
D03*
Y304800D02*
D03*
X292100Y292100D02*
D03*
Y266700D02*
D03*
X285750Y304800D02*
D03*
X279400Y292100D02*
D03*
Y266700D02*
D03*
X266700Y317500D02*
D03*
X273050Y304800D02*
D03*
X266700Y292100D02*
D03*
X273050Y279400D02*
D03*
X266700Y266700D02*
D03*
X522467Y257501D02*
D03*
X528007D02*
D03*
X516927D02*
D03*
X496062Y400558D02*
D03*
X680466Y339598D02*
D03*
X673354Y400304D02*
D03*
X623570D02*
D03*
X321564Y391414D02*
D03*
Y395986D02*
D03*
X321818Y339344D02*
D03*
X317500Y336804D02*
D03*
X595884Y267462D02*
D03*
X440944Y269240D02*
D03*
X667649Y400613D02*
D03*
X662109D02*
D03*
X656569D02*
D03*
X651029D02*
D03*
X645489D02*
D03*
X639949D02*
D03*
X634409D02*
D03*
X628869D02*
D03*
X617789D02*
D03*
X612249D02*
D03*
X606709D02*
D03*
X601169D02*
D03*
X595629D02*
D03*
X590089D02*
D03*
X584549D02*
D03*
X579009D02*
D03*
X573469D02*
D03*
X567929D02*
D03*
X562389D02*
D03*
X556849D02*
D03*
X551309D02*
D03*
X545769D02*
D03*
X540229D02*
D03*
X534689D02*
D03*
X529149D02*
D03*
X523609D02*
D03*
X518069D02*
D03*
X512529D02*
D03*
X506989D02*
D03*
X501449D02*
D03*
X490369D02*
D03*
X484829D02*
D03*
X479289D02*
D03*
X473749D02*
D03*
X468209D02*
D03*
X462669D02*
D03*
X457129D02*
D03*
X451589D02*
D03*
X446049D02*
D03*
X440509D02*
D03*
X434969D02*
D03*
X429429D02*
D03*
X423889D02*
D03*
X418349D02*
D03*
X412809D02*
D03*
X407269D02*
D03*
X401729D02*
D03*
X396189D02*
D03*
X390649D02*
D03*
X385109D02*
D03*
X379569D02*
D03*
X374029D02*
D03*
X368489D02*
D03*
X362949D02*
D03*
X357409D02*
D03*
X351869D02*
D03*
X346329D02*
D03*
X340789D02*
D03*
X335788Y400558D02*
D03*
X330962D02*
D03*
X326390D02*
D03*
X321564D02*
D03*
X321818Y386842D02*
D03*
Y381762D02*
D03*
Y376936D02*
D03*
Y371870D02*
D03*
Y366330D02*
D03*
Y360790D02*
D03*
Y355250D02*
D03*
Y349710D02*
D03*
Y344170D02*
D03*
X311658Y336804D02*
D03*
X306118D02*
D03*
X300578D02*
D03*
X295038D02*
D03*
X264414D02*
D03*
X257810D02*
D03*
Y331978D02*
D03*
X257755Y327162D02*
D03*
Y321622D02*
D03*
Y316082D02*
D03*
Y310542D02*
D03*
Y305002D02*
D03*
Y299462D02*
D03*
Y293922D02*
D03*
Y288382D02*
D03*
Y282842D02*
D03*
Y277302D02*
D03*
Y271762D02*
D03*
Y266222D02*
D03*
X257941Y260685D02*
D03*
X262474Y257501D02*
D03*
X268014D02*
D03*
X273554D02*
D03*
X279094D02*
D03*
X284634D02*
D03*
X290174D02*
D03*
X295714D02*
D03*
X301254D02*
D03*
X306794D02*
D03*
X312334D02*
D03*
X317874D02*
D03*
X323414D02*
D03*
X328954D02*
D03*
X334494D02*
D03*
X340034D02*
D03*
X345574D02*
D03*
X351114D02*
D03*
X356654D02*
D03*
X362194D02*
D03*
X367734D02*
D03*
X373274D02*
D03*
X378814D02*
D03*
X384354D02*
D03*
X389894D02*
D03*
X395434D02*
D03*
X400974D02*
D03*
X406514D02*
D03*
X412054D02*
D03*
X417594D02*
D03*
X423134D02*
D03*
X428674D02*
D03*
X434086D02*
D03*
X439367D02*
D03*
X444907D02*
D03*
X450447D02*
D03*
X455987D02*
D03*
X461527D02*
D03*
X467067D02*
D03*
X472607D02*
D03*
X478147D02*
D03*
X483687D02*
D03*
X489227D02*
D03*
X494767D02*
D03*
X500307D02*
D03*
X505847D02*
D03*
X511387D02*
D03*
X533547D02*
D03*
X539087D02*
D03*
X544627D02*
D03*
X550167D02*
D03*
X555707D02*
D03*
X561247D02*
D03*
X566787D02*
D03*
X572327Y257526D02*
D03*
X577859Y257814D02*
D03*
X583390Y257501D02*
D03*
X588930D02*
D03*
X594470D02*
D03*
X600010D02*
D03*
X605550D02*
D03*
X611090D02*
D03*
X616630D02*
D03*
X622170D02*
D03*
X627710D02*
D03*
X633250D02*
D03*
X638790D02*
D03*
X644330D02*
D03*
X649870D02*
D03*
X655410D02*
D03*
X660950D02*
D03*
X666490D02*
D03*
X672030D02*
D03*
X677565Y257732D02*
D03*
X680521Y262418D02*
D03*
Y267958D02*
D03*
Y273498D02*
D03*
Y279038D02*
D03*
Y284578D02*
D03*
Y290118D02*
D03*
Y295658D02*
D03*
Y301198D02*
D03*
Y306738D02*
D03*
Y312278D02*
D03*
Y317818D02*
D03*
Y323358D02*
D03*
Y328898D02*
D03*
Y334438D02*
D03*
Y345518D02*
D03*
Y351058D02*
D03*
Y356598D02*
D03*
Y362138D02*
D03*
Y367678D02*
D03*
Y373218D02*
D03*
Y378758D02*
D03*
Y384298D02*
D03*
Y389838D02*
D03*
Y395378D02*
D03*
X677978Y400300D02*
D03*
X333201Y322994D02*
D03*
X271272Y326294D02*
D03*
X331614Y312006D02*
D03*
X302353Y312078D02*
D03*
X281178Y310642D02*
D03*
X299389Y323066D02*
D03*
X271018Y331216D02*
D03*
X326075Y312125D02*
D03*
X286004Y312166D02*
D03*
X271272Y315976D02*
D03*
X271526Y310896D02*
D03*
X271018Y336756D02*
D03*
X271272Y320754D02*
D03*
X296813Y312078D02*
D03*
X304929Y323066D02*
D03*
X293849D02*
D03*
X276606Y310642D02*
D03*
X313433Y312078D02*
D03*
X288309Y323066D02*
D03*
X286258Y327660D02*
D03*
X307893Y312078D02*
D03*
X291273D02*
D03*
X592328Y390398D02*
D03*
X588949Y374473D02*
D03*
X425704Y384398D02*
D03*
X416052D02*
D03*
X399034D02*
D03*
X405384D02*
D03*
X585751Y291946D02*
D03*
X546354Y267462D02*
D03*
X595630Y344678D02*
D03*
X595922Y349476D02*
D03*
X600710Y344678D02*
D03*
Y349250D02*
D03*
X379321Y379321D02*
D03*
X399542Y358394D02*
D03*
X534924Y340106D02*
D03*
X425450Y357886D02*
D03*
X418846Y341376D02*
D03*
X470786Y295308D02*
D03*
X615950Y389890D02*
D03*
X579628Y373888D02*
D03*
X622554Y387350D02*
D03*
X513334Y296926D02*
D03*
Y304800D02*
D03*
X569468Y373888D02*
D03*
X599440Y332994D02*
D03*
X544068Y292608D02*
D03*
X617474Y338836D02*
D03*
X526796Y303784D02*
D03*
Y267716D02*
D03*
X541274Y304546D02*
D03*
X602488Y296672D02*
D03*
X575818Y266192D02*
D03*
X585978Y267716D02*
D03*
X374904Y314960D02*
D03*
Y335280D02*
D03*
X395224Y325120D02*
D03*
X385064D02*
D03*
Y335280D02*
D03*
Y314960D02*
D03*
X374904Y325120D02*
D03*
X395224Y314960D02*
D03*
Y335280D02*
D03*
X345186Y359918D02*
D03*
X388620Y362712D02*
D03*
X495283Y292209D02*
D03*
X361442Y353314D02*
D03*
X471424Y305054D02*
D03*
X488442Y288091D02*
D03*
X410210Y289814D02*
D03*
X470662Y383794D02*
D03*
X461010Y383286D02*
D03*
X334264Y351028D02*
D03*
X384422Y375063D02*
D03*
X366776Y361442D02*
D03*
X451866Y267462D02*
D03*
X499618Y363728D02*
D03*
Y359156D02*
D03*
X495046D02*
D03*
X480060Y357632D02*
D03*
X517652Y351028D02*
D03*
X507492Y351536D02*
D03*
X511048Y312928D02*
D03*
X619252Y349250D02*
D03*
X423672Y314706D02*
D03*
X553246Y320040D02*
D03*
X560746Y312290D02*
D03*
Y320040D02*
D03*
Y327790D02*
D03*
X571246D02*
D03*
Y320040D02*
D03*
Y312290D02*
D03*
X578690Y320031D02*
D03*
X646938Y368808D02*
D03*
X638302Y385826D02*
D03*
X599440Y373888D02*
D03*
X535940Y267716D02*
D03*
X347980Y268732D02*
D03*
X362966Y290576D02*
D03*
X382016Y263652D02*
D03*
X449580Y288544D02*
D03*
X449834Y298704D02*
D03*
X451866Y355092D02*
D03*
X441960Y355346D02*
D03*
X325628Y303022D02*
D03*
Y293624D02*
D03*
M02*
