G04*
G04 #@! TF.GenerationSoftware,Altium Limited,Altium Designer,25.4.2 (15)*
G04*
G04 Layer_Physical_Order=4*
G04 Layer_Color=16711680*
%FSLAX44Y44*%
%MOMM*%
G71*
G04*
G04 #@! TF.SameCoordinates,0B5DAD5C-0C0E-4793-B882-C7F6C3490101*
G04*
G04*
G04 #@! TF.FilePolarity,Positive*
G04*
G01*
G75*
%ADD14C,0.2540*%
%ADD40C,1.3700*%
%ADD41R,1.3700X1.3700*%
%ADD43C,0.5080*%
%ADD44C,0.4000*%
%ADD45C,0.3000*%
%ADD50C,1.0000*%
%ADD51O,0.9000X1.5000*%
G36*
X682730Y255560D02*
X466034Y255523D01*
X256569Y255559D01*
X255671Y256457D01*
X255749Y332113D01*
X255743Y338191D01*
X256641Y339090D01*
X319024D01*
Y402590D01*
X682730D01*
Y255560D01*
D02*
G37*
%LPC*%
G36*
X510828Y392874D02*
X509236D01*
X507766Y392265D01*
X506641Y391140D01*
X506095Y389822D01*
X505460Y389742D01*
X504825Y389822D01*
X504279Y391140D01*
X503154Y392265D01*
X501684Y392874D01*
X500092D01*
X498622Y392265D01*
X497497Y391140D01*
X496888Y389670D01*
Y388078D01*
X497497Y386608D01*
X497957Y386148D01*
X498512Y385318D01*
X497957Y384488D01*
X497497Y384028D01*
X496888Y382558D01*
Y380966D01*
X497497Y379496D01*
X498622Y378371D01*
X500092Y377762D01*
X501684D01*
X503154Y378371D01*
X504279Y379496D01*
X504888Y380966D01*
Y382558D01*
X504279Y384028D01*
X503819Y384488D01*
X503264Y385318D01*
X503819Y386148D01*
X504279Y386608D01*
X504825Y387926D01*
X505460Y388006D01*
X506095Y387926D01*
X506641Y386608D01*
X507766Y385483D01*
X509236Y384874D01*
X510828D01*
X512298Y385483D01*
X513423Y386608D01*
X514032Y388078D01*
Y389670D01*
X513423Y391140D01*
X512298Y392265D01*
X510828Y392874D01*
D02*
G37*
G36*
X431546Y397542D02*
X391852D01*
X390576Y397288D01*
X389494Y396566D01*
X377243Y384314D01*
X376520Y383233D01*
X376266Y381957D01*
Y381923D01*
X375930Y381587D01*
X375769Y381199D01*
X374315Y380427D01*
X372618Y380650D01*
X370921Y380427D01*
X369340Y379772D01*
X367982Y378730D01*
X366940Y377372D01*
X365596D01*
X364554Y378730D01*
X363196Y379772D01*
X361615Y380427D01*
X359918Y380650D01*
X358221Y380427D01*
X356640Y379772D01*
X355282Y378730D01*
X354639Y377892D01*
X354197Y377806D01*
X353213Y377900D01*
X353144Y377935D01*
X352239Y379115D01*
X350768Y380243D01*
X349056Y380953D01*
X348488Y381027D01*
Y371094D01*
Y361161D01*
X349056Y361235D01*
X350768Y361945D01*
X352239Y363073D01*
X353144Y364253D01*
X353213Y364288D01*
X354197Y364382D01*
X354639Y364296D01*
X355282Y363458D01*
X356640Y362416D01*
X358221Y361761D01*
X359918Y361538D01*
X361615Y361761D01*
X361632Y361768D01*
X362792Y360608D01*
X363385Y359176D01*
X364510Y358051D01*
X365980Y357442D01*
X367572D01*
X369042Y358051D01*
X370167Y359176D01*
X370776Y360646D01*
X372046Y361613D01*
X372618Y361538D01*
X374315Y361761D01*
X375896Y362416D01*
X376257Y362693D01*
X376476Y362650D01*
X383847D01*
X384648Y361848D01*
X385229Y360446D01*
X386354Y359321D01*
X387824Y358712D01*
X389416D01*
X390886Y359321D01*
X392011Y360446D01*
X392620Y361916D01*
Y362548D01*
X393890Y362979D01*
X394013Y362819D01*
X395428Y361733D01*
X396075Y361041D01*
X396151Y360660D01*
X395542Y359190D01*
Y357598D01*
X396151Y356128D01*
X397276Y355003D01*
X398746Y354394D01*
X398827D01*
X401241Y351979D01*
X400756Y350806D01*
X368665D01*
X365442Y354029D01*
Y354110D01*
X364833Y355580D01*
X363708Y356705D01*
X362238Y357314D01*
X360646D01*
X359176Y356705D01*
X358051Y355580D01*
X357442Y354110D01*
Y352518D01*
X358051Y351048D01*
X359176Y349923D01*
X360646Y349314D01*
X360727D01*
X364926Y345115D01*
X366008Y344392D01*
X367284Y344138D01*
X414292D01*
X415134Y342868D01*
X414846Y342172D01*
Y340580D01*
X415455Y339110D01*
X416580Y337985D01*
X418050Y337376D01*
X418131D01*
X438042Y317465D01*
X437754Y316390D01*
Y314546D01*
X438231Y312766D01*
X439153Y311170D01*
X440456Y309867D01*
X442052Y308945D01*
X443832Y308468D01*
X445676D01*
X446751Y308756D01*
X459922Y295585D01*
X462509Y292997D01*
X463591Y292275D01*
X464867Y292021D01*
X468416D01*
X468520Y291917D01*
X469990Y291308D01*
X471582D01*
X473052Y291917D01*
X474177Y293042D01*
X474786Y294512D01*
Y296104D01*
X474177Y297574D01*
X473052Y298699D01*
X471582Y299308D01*
X469990D01*
X468520Y298699D01*
X468510Y298689D01*
X466248D01*
X464637Y300299D01*
X451466Y313471D01*
X451754Y314546D01*
Y316390D01*
X451277Y318170D01*
X450355Y319766D01*
X449052Y321069D01*
X447456Y321991D01*
X445676Y322468D01*
X443832D01*
X442757Y322180D01*
X430862Y334075D01*
X431348Y335248D01*
X469281D01*
X475964Y328565D01*
Y308193D01*
X476218Y306917D01*
X476940Y305836D01*
X489512Y293264D01*
X489480Y293130D01*
X488889Y292091D01*
X487646D01*
X486176Y291482D01*
X485051Y290357D01*
X484442Y288887D01*
Y288806D01*
X478180Y282544D01*
X463903D01*
X463197Y283600D01*
X463232Y283684D01*
Y285276D01*
X462623Y286746D01*
X461498Y287871D01*
X460028Y288480D01*
X458436D01*
X456966Y287871D01*
X455841Y286746D01*
X455232Y285276D01*
Y283684D01*
X455267Y283600D01*
X454561Y282544D01*
X429728D01*
X426876Y285396D01*
X427123Y286642D01*
X427208Y286677D01*
X428333Y287802D01*
X428942Y289272D01*
Y290864D01*
X428333Y292334D01*
X427208Y293459D01*
X425738Y294068D01*
X424146D01*
X422676Y293459D01*
X421551Y292334D01*
X421516Y292250D01*
X420270Y292002D01*
X420101Y292171D01*
X419019Y292894D01*
X417743Y293148D01*
X412533D01*
X412476Y293205D01*
X411006Y293814D01*
X409414D01*
X407944Y293205D01*
X406819Y292080D01*
X406210Y290610D01*
Y289018D01*
X406819Y287548D01*
X407944Y286423D01*
X409414Y285814D01*
X411006D01*
X412476Y286423D01*
X412533Y286480D01*
X416362D01*
X425990Y276852D01*
X427071Y276130D01*
X428347Y275876D01*
X479561D01*
X480837Y276130D01*
X481918Y276852D01*
X489157Y284091D01*
X489238D01*
X490708Y284700D01*
X491833Y285825D01*
X492442Y287295D01*
Y287733D01*
X493712Y288530D01*
X494487Y288209D01*
X496078D01*
X497548Y288818D01*
X498674Y289943D01*
X499282Y291413D01*
Y293004D01*
X498674Y294475D01*
X497548Y295600D01*
X496078Y296209D01*
X495998D01*
X483194Y309012D01*
X483234Y309413D01*
X484524Y309875D01*
X484583Y309860D01*
X484906Y309537D01*
X486376Y308928D01*
X487968D01*
X489438Y309537D01*
X490563Y310662D01*
X491172Y312132D01*
Y313724D01*
X490563Y315194D01*
X489971Y315786D01*
X490112Y316419D01*
X490426Y317127D01*
X491724Y317665D01*
X492849Y318790D01*
X493458Y320260D01*
Y321852D01*
X492849Y323322D01*
X491724Y324447D01*
X491586Y324504D01*
X491553Y324560D01*
X491385Y325962D01*
X492087Y326664D01*
X492696Y328134D01*
Y329726D01*
X492087Y331196D01*
X490962Y332321D01*
X489492Y332930D01*
X487900D01*
X486430Y332321D01*
X485305Y331196D01*
X484696Y329726D01*
Y328134D01*
X485305Y326664D01*
X486430Y325539D01*
X486568Y325482D01*
X486601Y325426D01*
X486769Y324024D01*
X486067Y323322D01*
X485458Y321852D01*
Y320260D01*
X486067Y318790D01*
X486659Y318198D01*
X486518Y317565D01*
X486204Y316857D01*
X484906Y316319D01*
X483902Y315315D01*
X483337Y315391D01*
X482632Y315704D01*
Y329946D01*
X482378Y331222D01*
X481656Y332304D01*
X477949Y336010D01*
X478475Y337280D01*
X514691D01*
X515967Y337534D01*
X517048Y338256D01*
X543789Y364997D01*
X544512Y366079D01*
X544766Y367355D01*
Y370379D01*
X547181Y372794D01*
X548354Y372308D01*
Y349939D01*
X514628Y316214D01*
X513906Y315132D01*
X513652Y313857D01*
Y310228D01*
X512001Y308578D01*
X511068Y308191D01*
X509943Y307066D01*
X509334Y305596D01*
Y304004D01*
X509943Y302534D01*
X510868Y301609D01*
X510984Y300863D01*
X510868Y300117D01*
X509943Y299192D01*
X509334Y297722D01*
Y296130D01*
X509943Y294660D01*
X511068Y293535D01*
X512538Y292926D01*
X514130D01*
X515600Y293535D01*
X516725Y294660D01*
X517334Y296130D01*
Y296211D01*
X523884Y302761D01*
X524606Y303842D01*
X524860Y305118D01*
Y310595D01*
X558618Y344352D01*
X559340Y345434D01*
X559594Y346710D01*
Y372366D01*
X564386Y377158D01*
X583872D01*
X584602Y375888D01*
X584320Y374473D01*
Y340183D01*
X584320Y340183D01*
X584673Y338411D01*
X585676Y336910D01*
X592865Y329721D01*
X592865Y329721D01*
X594367Y328717D01*
X596138Y328365D01*
X599440D01*
X601211Y328717D01*
X602713Y329721D01*
X603717Y331223D01*
X604069Y332994D01*
X603717Y334765D01*
X602713Y336267D01*
X601211Y337271D01*
X599440Y337623D01*
X598055D01*
X593578Y342100D01*
Y374473D01*
X593297Y375888D01*
X594026Y377158D01*
X611490D01*
Y376776D01*
X611967Y374996D01*
X612889Y373400D01*
X614192Y372097D01*
X615788Y371175D01*
X617568Y370698D01*
X619412D01*
X621192Y371175D01*
X622788Y372097D01*
X624091Y373400D01*
X625013Y374996D01*
X625490Y376776D01*
Y378620D01*
X625013Y380400D01*
X624091Y381996D01*
X623889Y382199D01*
X624187Y383697D01*
X624820Y383959D01*
X625945Y385084D01*
X626554Y386554D01*
Y388146D01*
X625945Y389616D01*
X624820Y390741D01*
X623350Y391350D01*
X621758D01*
X621064Y391062D01*
X620251Y390788D01*
X619531Y391697D01*
X619341Y392156D01*
X618216Y393281D01*
X616746Y393890D01*
X615154D01*
X613684Y393281D01*
X613294Y392891D01*
X613083Y392840D01*
X611744Y393137D01*
X611137Y394188D01*
X609834Y395491D01*
X608238Y396413D01*
X606458Y396890D01*
X604614D01*
X602834Y396413D01*
X601238Y395491D01*
X599935Y394188D01*
X599013Y392592D01*
X598536Y390812D01*
Y389638D01*
X597450Y388524D01*
X596967Y388532D01*
X596301Y389537D01*
X596328Y389602D01*
Y391194D01*
X595719Y392664D01*
X594594Y393789D01*
X593124Y394398D01*
X591532D01*
X590062Y393789D01*
X590005Y393732D01*
X560070D01*
X558794Y393478D01*
X557712Y392756D01*
X555311Y390354D01*
X553636Y390475D01*
X552938Y391173D01*
X551342Y392095D01*
X549562Y392572D01*
X547718D01*
X545938Y392095D01*
X544342Y391173D01*
X543039Y389870D01*
X542117Y388274D01*
X541640Y386494D01*
Y384650D01*
X542117Y382870D01*
X543039Y381274D01*
X544342Y379971D01*
X544410Y379453D01*
X539074Y374117D01*
X538352Y373036D01*
X538098Y371760D01*
Y368736D01*
X513310Y343948D01*
X506951D01*
X506245Y345004D01*
X506412Y345406D01*
Y346998D01*
X505803Y348468D01*
X504678Y349593D01*
X503208Y350202D01*
X501616D01*
X500146Y349593D01*
X499021Y348468D01*
X498412Y346998D01*
Y345406D01*
X498579Y345004D01*
X497873Y343948D01*
X478520D01*
X476988Y345480D01*
X475907Y346202D01*
X474631Y346456D01*
X473502D01*
X473017Y347726D01*
X473799Y348508D01*
X474408Y349978D01*
Y351570D01*
X474098Y352317D01*
X474198Y353733D01*
X475323Y354858D01*
X475932Y356328D01*
Y357920D01*
X475323Y359390D01*
X474198Y360515D01*
X472728Y361124D01*
X471136D01*
X469666Y360515D01*
X469265Y360114D01*
X468864Y360515D01*
X467394Y361124D01*
X465802D01*
X464332Y360515D01*
X463931Y360114D01*
X463530Y360515D01*
X462060Y361124D01*
X460468D01*
X458998Y360515D01*
X457873Y359390D01*
X457264Y357920D01*
Y356328D01*
X457873Y354858D01*
X458998Y353733D01*
X460468Y353124D01*
X462060D01*
X463530Y353733D01*
X463931Y354134D01*
X464332Y353733D01*
X465802Y353124D01*
X466526Y351854D01*
X466408Y351570D01*
Y349978D01*
X466113Y349536D01*
X439785D01*
X434805Y354516D01*
X433724Y355239D01*
X432448Y355492D01*
X430163D01*
X429314Y356762D01*
X429450Y357090D01*
Y358682D01*
X428841Y360152D01*
X428061Y360932D01*
X427983Y361205D01*
X428029Y362192D01*
X428128Y362481D01*
X429070Y363204D01*
X430112Y364562D01*
X431456D01*
X432498Y363204D01*
X433856Y362162D01*
X435437Y361507D01*
X437134Y361284D01*
X438831Y361507D01*
X440412Y362162D01*
X441770Y363204D01*
X442812Y364562D01*
X444156D01*
X445198Y363204D01*
X446556Y362162D01*
X448137Y361507D01*
X449834Y361284D01*
X451531Y361507D01*
X453112Y362162D01*
X454470Y363204D01*
X455512Y364562D01*
X456167Y366143D01*
X456390Y367840D01*
Y373840D01*
X456167Y375537D01*
X455512Y377118D01*
X454470Y378476D01*
X453168Y379475D01*
Y385027D01*
X453225Y385084D01*
X453834Y386554D01*
Y388146D01*
X453225Y389616D01*
X452100Y390741D01*
X450630Y391350D01*
X449038D01*
X447568Y390741D01*
X446443Y389616D01*
X445834Y388146D01*
Y386554D01*
X446443Y385084D01*
X446500Y385027D01*
Y379475D01*
X445198Y378476D01*
X444156Y377118D01*
X442812D01*
X441770Y378476D01*
X440468Y379475D01*
Y388620D01*
X440214Y389896D01*
X439492Y390978D01*
X433904Y396566D01*
X432822Y397288D01*
X431546Y397542D01*
D02*
G37*
G36*
X664894Y391364D02*
X662564D01*
X660313Y390761D01*
X658295Y389596D01*
X656647Y387948D01*
X655482Y385930D01*
X654879Y383679D01*
Y381349D01*
X655482Y379098D01*
X656647Y377080D01*
X658295Y375433D01*
X660313Y374267D01*
X662564Y373664D01*
X664894D01*
X667145Y374267D01*
X669163Y375433D01*
X670811Y377080D01*
X671976Y379098D01*
X672579Y381349D01*
Y383679D01*
X671976Y385930D01*
X670811Y387948D01*
X669163Y389596D01*
X667145Y390761D01*
X664894Y391364D01*
D02*
G37*
G36*
X345948Y381027D02*
X345380Y380953D01*
X343668Y380243D01*
X342197Y379115D01*
X341069Y377644D01*
X340359Y375932D01*
X340117Y374094D01*
Y372364D01*
X345948D01*
Y381027D01*
D02*
G37*
G36*
Y369824D02*
X340117D01*
Y368094D01*
X340359Y366256D01*
X341069Y364544D01*
X342197Y363073D01*
X343668Y361945D01*
X345380Y361235D01*
X345948Y361161D01*
Y369824D01*
D02*
G37*
G36*
X639098Y354774D02*
X637506D01*
X636036Y354165D01*
X636016Y354145D01*
X635996Y354165D01*
X634526Y354774D01*
X632934D01*
X631464Y354165D01*
X631444Y354145D01*
X631424Y354165D01*
X629954Y354774D01*
X628362D01*
X626892Y354165D01*
X625767Y353040D01*
X625158Y351570D01*
Y349978D01*
X625767Y348508D01*
X626892Y347383D01*
X628362Y346774D01*
X629954D01*
X631424Y347383D01*
X631444Y347403D01*
X631464Y347383D01*
X632934Y346774D01*
X634526D01*
X635996Y347383D01*
X636016Y347403D01*
X636036Y347383D01*
X637506Y346774D01*
X639098D01*
X640568Y347383D01*
X641693Y348508D01*
X642302Y349978D01*
Y351570D01*
X641693Y353040D01*
X640568Y354165D01*
X639098Y354774D01*
D02*
G37*
G36*
X578646Y353504D02*
X577054D01*
X575584Y352895D01*
X575056Y352367D01*
X574528Y352895D01*
X573058Y353504D01*
X571466D01*
X569996Y352895D01*
X568871Y351770D01*
X568262Y350300D01*
Y348708D01*
X568871Y347238D01*
X569996Y346113D01*
X571056Y345674D01*
Y344390D01*
X571665Y342920D01*
X572790Y341795D01*
X574260Y341186D01*
X575852D01*
X577322Y341795D01*
X578447Y342920D01*
X579056Y344390D01*
Y345674D01*
X580116Y346113D01*
X581241Y347238D01*
X581850Y348708D01*
Y350300D01*
X581241Y351770D01*
X580116Y352895D01*
X578646Y353504D01*
D02*
G37*
G36*
X664894Y365964D02*
X662564D01*
X660313Y365361D01*
X658295Y364196D01*
X656647Y362548D01*
X655482Y360530D01*
X654879Y358279D01*
Y355949D01*
X655482Y353698D01*
X656647Y351680D01*
X658295Y350033D01*
X660313Y348867D01*
X662564Y348264D01*
X664894D01*
X667145Y348867D01*
X669163Y350033D01*
X670811Y351680D01*
X671976Y353698D01*
X672579Y355949D01*
Y358279D01*
X671976Y360530D01*
X670811Y362548D01*
X669163Y364196D01*
X667145Y365361D01*
X664894Y365964D01*
D02*
G37*
G36*
X343696Y355028D02*
X342104D01*
X340634Y354419D01*
X339509Y353294D01*
X338900Y351824D01*
Y350232D01*
X339509Y348762D01*
X340634Y347637D01*
X342104Y347028D01*
X343696D01*
X345166Y347637D01*
X346291Y348762D01*
X346900Y350232D01*
Y351824D01*
X346291Y353294D01*
X345166Y354419D01*
X343696Y355028D01*
D02*
G37*
G36*
X673119Y341104D02*
X664999D01*
Y332984D01*
X673119D01*
Y341104D01*
D02*
G37*
G36*
X662459D02*
X654339D01*
Y332984D01*
X662459D01*
Y341104D01*
D02*
G37*
G36*
X673119Y330444D02*
X664999D01*
Y322324D01*
X673119D01*
Y330444D01*
D02*
G37*
G36*
X662459D02*
X654339D01*
Y322324D01*
X662459D01*
Y330444D01*
D02*
G37*
G36*
X471458Y317182D02*
X469866D01*
X468396Y316573D01*
X467271Y315448D01*
X466662Y313978D01*
Y312386D01*
X467271Y310916D01*
X468396Y309791D01*
X469866Y309182D01*
X471458D01*
X472928Y309791D01*
X474053Y310916D01*
X474662Y312386D01*
Y313978D01*
X474053Y315448D01*
X472928Y316573D01*
X471458Y317182D01*
D02*
G37*
G36*
X672833Y309830D02*
X655133D01*
Y292130D01*
X672833D01*
Y309830D01*
D02*
G37*
G36*
X343950Y291528D02*
X342358D01*
X340888Y290919D01*
X339763Y289794D01*
X339154Y288324D01*
Y286732D01*
X339763Y285262D01*
X340888Y284137D01*
X342358Y283528D01*
X343950D01*
X345420Y284137D01*
X346545Y285262D01*
X347154Y286732D01*
Y288324D01*
X346545Y289794D01*
X345420Y290919D01*
X343950Y291528D01*
D02*
G37*
G36*
X665148Y284430D02*
X662818D01*
X660567Y283827D01*
X658549Y282662D01*
X656901Y281014D01*
X655736Y278996D01*
X655133Y276745D01*
Y274415D01*
X655736Y272164D01*
X656901Y270146D01*
X658549Y268498D01*
X660567Y267333D01*
X662818Y266730D01*
X665148D01*
X667399Y267333D01*
X669417Y268498D01*
X671065Y270146D01*
X672230Y272164D01*
X672833Y274415D01*
Y276745D01*
X672230Y278996D01*
X671065Y281014D01*
X669417Y282662D01*
X667399Y283827D01*
X665148Y284430D01*
D02*
G37*
G36*
X507018Y271970D02*
X505426D01*
X503956Y271361D01*
X502831Y270236D01*
X502222Y268766D01*
Y267174D01*
X502831Y265704D01*
X503956Y264579D01*
X505426Y263970D01*
X507018D01*
X508488Y264579D01*
X509613Y265704D01*
X510222Y267174D01*
Y268766D01*
X509613Y270236D01*
X508488Y271361D01*
X507018Y271970D01*
D02*
G37*
G36*
X542070Y308546D02*
X540478D01*
X539008Y307937D01*
X537883Y306812D01*
X537274Y305342D01*
Y305261D01*
X524439Y292425D01*
X523716Y291344D01*
X523462Y290068D01*
Y270039D01*
X523405Y269982D01*
X522796Y268512D01*
Y266920D01*
X523405Y265450D01*
X524530Y264325D01*
X526000Y263716D01*
X527592D01*
X529062Y264325D01*
X530187Y265450D01*
X530796Y266920D01*
Y268512D01*
X530187Y269982D01*
X530130Y270039D01*
Y288687D01*
X541989Y300546D01*
X542070D01*
X543540Y301155D01*
X544665Y302280D01*
X545274Y303750D01*
Y305342D01*
X544665Y306812D01*
X543540Y307937D01*
X542070Y308546D01*
D02*
G37*
G36*
X614460Y353504D02*
X612868D01*
X611398Y352895D01*
X610273Y351770D01*
X609664Y350300D01*
Y349165D01*
X608858Y348831D01*
X607733Y347706D01*
X607124Y346236D01*
Y344644D01*
X607733Y343174D01*
X608858Y342049D01*
X610328Y341440D01*
X611920D01*
X613239Y341986D01*
X614083Y341102D01*
X613474Y339632D01*
Y338040D01*
X614083Y336570D01*
X614140Y336513D01*
Y323707D01*
X591709Y301276D01*
X549402D01*
X548126Y301022D01*
X547044Y300299D01*
X543353Y296608D01*
X543272D01*
X541802Y295999D01*
X540677Y294874D01*
X540068Y293404D01*
Y291812D01*
X540677Y290342D01*
X541802Y289217D01*
X543272Y288608D01*
X544864D01*
X546334Y289217D01*
X547459Y290342D01*
X548068Y291812D01*
Y291893D01*
X550783Y294608D01*
X557591D01*
X558117Y293338D01*
X543997Y279217D01*
X543274Y278136D01*
X543020Y276860D01*
Y269785D01*
X542963Y269728D01*
X542354Y268258D01*
Y266666D01*
X542963Y265196D01*
X544088Y264071D01*
X545558Y263462D01*
X547150D01*
X548620Y264071D01*
X549745Y265196D01*
X550354Y266666D01*
Y268258D01*
X549745Y269728D01*
X549688Y269785D01*
Y275479D01*
X562821Y288612D01*
X583428D01*
X583485Y288555D01*
X584955Y287946D01*
X585420D01*
X585946Y286676D01*
X576165Y276895D01*
X575161Y275393D01*
X574809Y273622D01*
X574809Y273622D01*
Y271729D01*
X572545Y269465D01*
X571541Y267963D01*
X571189Y266192D01*
X571541Y264421D01*
X572545Y262919D01*
X574047Y261915D01*
X575818Y261563D01*
X577589Y261915D01*
X579091Y262919D01*
X582711Y266539D01*
X582711Y266539D01*
X583715Y268041D01*
X584067Y269812D01*
X584067Y269812D01*
Y271705D01*
X605761Y293399D01*
X606765Y294901D01*
X607117Y296672D01*
X606765Y298443D01*
X605761Y299945D01*
X604259Y300949D01*
X602882Y301223D01*
X602329Y302466D01*
X619832Y319968D01*
X620554Y321050D01*
X620808Y322326D01*
Y336513D01*
X620865Y336570D01*
X621474Y338040D01*
Y339632D01*
X620865Y341102D01*
X619965Y342002D01*
X619087Y342920D01*
X619696Y344390D01*
Y345250D01*
X620048D01*
X621518Y345859D01*
X622643Y346984D01*
X623252Y348454D01*
Y350046D01*
X622643Y351516D01*
X621518Y352641D01*
X620048Y353250D01*
X618456D01*
X616986Y352641D01*
X616585Y352240D01*
X615930Y352895D01*
X614460Y353504D01*
D02*
G37*
%LPD*%
G36*
X427640Y385612D02*
Y381761D01*
X426061Y380182D01*
X424434Y380396D01*
X422737Y380173D01*
X421156Y379518D01*
X419798Y378476D01*
X418756Y377118D01*
X417412D01*
X416370Y378476D01*
X415012Y379518D01*
X413431Y380173D01*
X411734Y380396D01*
X410037Y380173D01*
X408456Y379518D01*
X407098Y378476D01*
X406455Y377638D01*
X406013Y377552D01*
X405029Y377646D01*
X404960Y377681D01*
X404055Y378861D01*
X402584Y379989D01*
X400872Y380699D01*
X400304Y380774D01*
Y370840D01*
X399034D01*
Y369570D01*
X391933D01*
Y367840D01*
X392083Y366702D01*
X390886Y366103D01*
X389416Y366712D01*
X389215D01*
X387585Y368341D01*
X386503Y369064D01*
X385228Y369318D01*
X379174D01*
Y373355D01*
X380444Y374050D01*
X380525Y374021D01*
X381031Y372797D01*
X382157Y371672D01*
X383627Y371063D01*
X385218D01*
X386688Y371672D01*
X387813Y372797D01*
X388422Y374267D01*
Y375859D01*
X388036Y376792D01*
Y379257D01*
X395113Y386334D01*
X426918D01*
X427640Y385612D01*
D02*
G37*
G36*
X418097Y356762D02*
X417570Y355492D01*
X407266D01*
X406563Y356362D01*
X406950Y357551D01*
X408158Y358051D01*
X409283Y359176D01*
X409892Y360646D01*
X411162Y361359D01*
X411734Y361284D01*
X413361Y361498D01*
X418097Y356762D01*
D02*
G37*
G36*
X436046Y343844D02*
X437032Y343186D01*
X437042Y343094D01*
X436259Y341916D01*
X430474D01*
X424739Y347651D01*
X425225Y348824D01*
X431067D01*
X436046Y343844D01*
D02*
G37*
%LPC*%
G36*
X397764Y380774D02*
X397196Y380699D01*
X395484Y379989D01*
X394013Y378861D01*
X392885Y377390D01*
X392175Y375678D01*
X391933Y373840D01*
Y372110D01*
X397764D01*
Y380774D01*
D02*
G37*
%LPD*%
G36*
X592608Y293338D02*
X591021Y291751D01*
X589923Y292206D01*
X589580Y293451D01*
X590353Y294608D01*
X592081D01*
X592608Y293338D01*
D02*
G37*
D14*
X546354Y267462D02*
Y276860D01*
X561440Y291946D01*
X585751D01*
X462280Y297942D02*
X464867Y295355D01*
X605536Y385128D02*
X611188D01*
X560070Y390398D02*
X592328D01*
X541432Y371760D02*
X560070Y390398D01*
X561221Y385128D02*
X605536D01*
X611188D02*
X615950Y389890D01*
X551688Y375596D02*
X561221Y385128D01*
X556260Y373747D02*
X563005Y380492D01*
X615696D02*
X622554Y387350D01*
X563005Y380492D02*
X615696D01*
X379600Y381957D02*
X391852Y394208D01*
X399034Y370840D02*
Y384398D01*
X393732Y389668D02*
X428299D01*
X430974Y386993D01*
X431546Y394208D02*
X437134Y388620D01*
X384702Y380638D02*
X393732Y389668D01*
X391852Y394208D02*
X431546D01*
X430974Y380380D02*
Y386993D01*
X549402Y297942D02*
X593090D01*
X544068Y292608D02*
X549402Y297942D01*
X593090D02*
X617474Y322326D01*
X384422Y375063D02*
X384702Y375342D01*
X379600Y379600D02*
Y381957D01*
X384702Y375342D02*
Y380638D01*
X379321Y379321D02*
X379600Y379600D01*
X541432Y367355D02*
Y371760D01*
X514691Y340614D02*
X541432Y367355D01*
X477139Y340614D02*
X514691D01*
X474631Y343122D02*
X477139Y340614D01*
X470607Y343122D02*
X474631D01*
X467527Y346202D02*
X470607Y343122D01*
X438404Y346202D02*
X467527D01*
X432448Y352158D02*
X438404Y346202D01*
X405778Y352158D02*
X432448D01*
X399542Y358394D02*
X405778Y352158D01*
X556260Y346710D02*
Y373747D01*
X551688Y348559D02*
Y375596D01*
X516986Y313857D02*
X551688Y348559D01*
X521526Y311976D02*
X556260Y346710D01*
X425171Y358165D02*
X425450Y357886D01*
X464867Y295355D02*
X470739D01*
X418846Y341376D02*
X462280Y297942D01*
X367284Y347472D02*
X420203D01*
X429093Y338582D02*
X470662D01*
X420203Y347472D02*
X429093Y338582D01*
X470662D02*
X479298Y329946D01*
X470739Y295355D02*
X470786Y295308D01*
X622554Y387350D02*
X622949D01*
X513334Y305195D02*
X516986Y308847D01*
Y313857D01*
X513334Y304800D02*
Y305195D01*
X521526Y305118D02*
Y311976D01*
X513334Y296926D02*
X521526Y305118D01*
X617474Y322326D02*
Y338836D01*
X526796Y267716D02*
Y290068D01*
X541274Y304546D01*
X345186Y359918D02*
Y360313D01*
X345982Y361109D01*
Y369858D01*
X347218Y371094D01*
X372618Y369842D02*
X376476Y365984D01*
X385228D01*
X388499Y362712D01*
X372618Y369842D02*
Y371094D01*
X361442Y353314D02*
X367284Y347472D01*
X479298Y308193D02*
X495283Y292209D01*
X479298Y308193D02*
Y329946D01*
X479561Y279210D02*
X488442Y288091D01*
X428347Y279210D02*
X479561D01*
X417743Y289814D02*
X428347Y279210D01*
X410210Y289814D02*
X417743D01*
X449834Y370840D02*
Y387350D01*
X421409Y358165D02*
X425171D01*
X411734Y367840D02*
X421409Y358165D01*
X411734Y367840D02*
Y370840D01*
X424434D02*
Y373840D01*
X430974Y380380D01*
X437134Y370840D02*
Y388620D01*
X359918Y368197D02*
Y371094D01*
Y368197D02*
X366673Y361442D01*
X366776D01*
D40*
X663729Y382514D02*
D03*
Y357114D02*
D03*
X663983Y275580D02*
D03*
D41*
X663729Y331714D02*
D03*
X663983Y300980D02*
D03*
D43*
X588949Y340183D02*
Y374473D01*
Y340183D02*
X596138Y332994D01*
X599440D01*
X579438Y273622D02*
X602488Y296672D01*
X579438Y269812D02*
Y273622D01*
X575818Y266192D02*
X579438Y269812D01*
D44*
X334010Y359918D02*
D03*
X597916Y313690D02*
D03*
X512064Y327660D02*
D03*
X560832Y266192D02*
D03*
X673100Y393700D02*
D03*
Y368300D02*
D03*
X660400Y393700D02*
D03*
Y368300D02*
D03*
X647700Y393700D02*
D03*
X635000D02*
D03*
X622300D02*
D03*
Y266700D02*
D03*
X533400Y393700D02*
D03*
X520700D02*
D03*
X482600D02*
D03*
X469900D02*
D03*
X457200D02*
D03*
X463550Y304800D02*
D03*
X457200Y292100D02*
D03*
X444500Y393700D02*
D03*
X406400Y266700D02*
D03*
X355600Y393700D02*
D03*
X342900D02*
D03*
Y266700D02*
D03*
X330200Y393700D02*
D03*
X336550Y279400D02*
D03*
X330200Y266700D02*
D03*
X323850Y330200D02*
D03*
X317500Y292100D02*
D03*
X323850Y279400D02*
D03*
X317500Y266700D02*
D03*
X311150Y330200D02*
D03*
Y304800D02*
D03*
X304800Y292100D02*
D03*
X311150Y279400D02*
D03*
X304800Y266700D02*
D03*
X298450Y330200D02*
D03*
Y304800D02*
D03*
X292100Y292100D02*
D03*
Y266700D02*
D03*
X285750Y304800D02*
D03*
X279400Y292100D02*
D03*
Y266700D02*
D03*
X266700Y317500D02*
D03*
X273050Y304800D02*
D03*
X266700Y292100D02*
D03*
X273050Y279400D02*
D03*
X266700Y266700D02*
D03*
X510032Y388874D02*
D03*
X500888D02*
D03*
Y381762D02*
D03*
X595884Y267462D02*
D03*
X440944Y269240D02*
D03*
X592328Y390398D02*
D03*
X588949Y374473D02*
D03*
X425704Y384398D02*
D03*
X416052D02*
D03*
X399034D02*
D03*
X405384D02*
D03*
X585751Y291946D02*
D03*
X546354Y267462D02*
D03*
X595630Y344678D02*
D03*
X595922Y349476D02*
D03*
X600710Y344678D02*
D03*
Y349250D02*
D03*
X379321Y379321D02*
D03*
X399542Y358394D02*
D03*
X534924Y340106D02*
D03*
X425450Y357886D02*
D03*
X405892Y361442D02*
D03*
X418846Y341376D02*
D03*
X470786Y295308D02*
D03*
X615950Y389890D02*
D03*
X579628Y373888D02*
D03*
X622554Y387350D02*
D03*
X513334Y296926D02*
D03*
Y304800D02*
D03*
X569468Y373888D02*
D03*
X599440Y332994D02*
D03*
X611124Y345440D02*
D03*
X544068Y292608D02*
D03*
X617474Y338836D02*
D03*
X526796Y303784D02*
D03*
Y267716D02*
D03*
X541274Y304546D02*
D03*
X602488Y296672D02*
D03*
X575818Y266192D02*
D03*
X585978Y267716D02*
D03*
X374904Y314960D02*
D03*
Y335280D02*
D03*
X395224Y325120D02*
D03*
X385064D02*
D03*
Y335280D02*
D03*
Y314960D02*
D03*
X374904Y325120D02*
D03*
X395224Y314960D02*
D03*
Y335280D02*
D03*
X345186Y359918D02*
D03*
X388620Y362712D02*
D03*
X495283Y292209D02*
D03*
X361442Y353314D02*
D03*
X487172Y312928D02*
D03*
X489458Y321056D02*
D03*
X471424Y305054D02*
D03*
X488442Y288091D02*
D03*
X410210Y289814D02*
D03*
X470662Y383794D02*
D03*
X461010Y383286D02*
D03*
X424942Y290068D02*
D03*
X343154Y287528D02*
D03*
X342900Y351028D02*
D03*
X334264D02*
D03*
X449834Y387350D02*
D03*
X384422Y375063D02*
D03*
X366776Y361442D02*
D03*
X506222Y267970D02*
D03*
X459232Y284480D02*
D03*
X451866Y267462D02*
D03*
X470662Y313182D02*
D03*
X470408Y350774D02*
D03*
X471932Y357124D02*
D03*
X466598D02*
D03*
X461264D02*
D03*
X499618Y363728D02*
D03*
Y359156D02*
D03*
X495046D02*
D03*
X502412Y346202D02*
D03*
X480060Y357632D02*
D03*
X517652Y351028D02*
D03*
X507492Y351536D02*
D03*
X511048Y312928D02*
D03*
X488696Y328930D02*
D03*
X638302Y350774D02*
D03*
X633730D02*
D03*
X629158D02*
D03*
X619252Y349250D02*
D03*
X615696Y345186D02*
D03*
X613664Y349504D02*
D03*
X423672Y314706D02*
D03*
X553246Y320040D02*
D03*
X560746Y312290D02*
D03*
Y320040D02*
D03*
Y327790D02*
D03*
X571246D02*
D03*
Y320040D02*
D03*
Y312290D02*
D03*
X578690Y320031D02*
D03*
X572262Y349504D02*
D03*
X575056Y345186D02*
D03*
X577850Y349504D02*
D03*
X646938Y368808D02*
D03*
X638302Y385826D02*
D03*
X599440Y373888D02*
D03*
X535940Y267716D02*
D03*
X347980Y268732D02*
D03*
X362966Y290576D02*
D03*
X382016Y263652D02*
D03*
X449580Y288544D02*
D03*
X449834Y298704D02*
D03*
X451866Y355092D02*
D03*
X441960Y355346D02*
D03*
X325628Y303022D02*
D03*
Y293624D02*
D03*
D45*
X522467Y257501D02*
D03*
X528007D02*
D03*
X516927D02*
D03*
X496062Y400558D02*
D03*
X680466Y339598D02*
D03*
X673354Y400304D02*
D03*
X623570D02*
D03*
X321564Y391414D02*
D03*
Y395986D02*
D03*
X321818Y339344D02*
D03*
X317500Y336804D02*
D03*
X667649Y400613D02*
D03*
X662109D02*
D03*
X656569D02*
D03*
X651029D02*
D03*
X645489D02*
D03*
X639949D02*
D03*
X634409D02*
D03*
X628869D02*
D03*
X617789D02*
D03*
X612249D02*
D03*
X606709D02*
D03*
X601169D02*
D03*
X595629D02*
D03*
X590089D02*
D03*
X584549D02*
D03*
X579009D02*
D03*
X573469D02*
D03*
X567929D02*
D03*
X562389D02*
D03*
X556849D02*
D03*
X551309D02*
D03*
X545769D02*
D03*
X540229D02*
D03*
X534689D02*
D03*
X529149D02*
D03*
X523609D02*
D03*
X518069D02*
D03*
X512529D02*
D03*
X506989D02*
D03*
X501449D02*
D03*
X490369D02*
D03*
X484829D02*
D03*
X479289D02*
D03*
X473749D02*
D03*
X468209D02*
D03*
X462669D02*
D03*
X457129D02*
D03*
X451589D02*
D03*
X446049D02*
D03*
X440509D02*
D03*
X434969D02*
D03*
X429429D02*
D03*
X423889D02*
D03*
X418349D02*
D03*
X412809D02*
D03*
X407269D02*
D03*
X401729D02*
D03*
X396189D02*
D03*
X390649D02*
D03*
X385109D02*
D03*
X379569D02*
D03*
X374029D02*
D03*
X368489D02*
D03*
X362949D02*
D03*
X357409D02*
D03*
X351869D02*
D03*
X346329D02*
D03*
X340789D02*
D03*
X335788Y400558D02*
D03*
X330962D02*
D03*
X326390D02*
D03*
X321564D02*
D03*
X321818Y386842D02*
D03*
Y381762D02*
D03*
Y376936D02*
D03*
Y371870D02*
D03*
Y366330D02*
D03*
Y360790D02*
D03*
Y355250D02*
D03*
Y349710D02*
D03*
Y344170D02*
D03*
X311658Y336804D02*
D03*
X306118D02*
D03*
X300578D02*
D03*
X295038D02*
D03*
X264414D02*
D03*
X257810D02*
D03*
Y331978D02*
D03*
X257755Y327162D02*
D03*
Y321622D02*
D03*
Y316082D02*
D03*
Y310542D02*
D03*
Y305002D02*
D03*
Y299462D02*
D03*
Y293922D02*
D03*
Y288382D02*
D03*
Y282842D02*
D03*
Y277302D02*
D03*
Y271762D02*
D03*
Y266222D02*
D03*
X257941Y260685D02*
D03*
X262474Y257501D02*
D03*
X268014D02*
D03*
X273554D02*
D03*
X279094D02*
D03*
X284634D02*
D03*
X290174D02*
D03*
X295714D02*
D03*
X301254D02*
D03*
X306794D02*
D03*
X312334D02*
D03*
X317874D02*
D03*
X323414D02*
D03*
X328954D02*
D03*
X334494D02*
D03*
X340034D02*
D03*
X345574D02*
D03*
X351114D02*
D03*
X356654D02*
D03*
X362194D02*
D03*
X367734D02*
D03*
X373274D02*
D03*
X378814D02*
D03*
X384354D02*
D03*
X389894D02*
D03*
X395434D02*
D03*
X400974D02*
D03*
X406514D02*
D03*
X412054D02*
D03*
X417594D02*
D03*
X423134D02*
D03*
X428674D02*
D03*
X434086D02*
D03*
X439367D02*
D03*
X444907D02*
D03*
X450447D02*
D03*
X455987D02*
D03*
X461527D02*
D03*
X467067D02*
D03*
X472607D02*
D03*
X478147D02*
D03*
X483687D02*
D03*
X489227D02*
D03*
X494767D02*
D03*
X500307D02*
D03*
X505847D02*
D03*
X511387D02*
D03*
X533547D02*
D03*
X539087D02*
D03*
X544627D02*
D03*
X550167D02*
D03*
X555707D02*
D03*
X561247D02*
D03*
X566787D02*
D03*
X572327Y257526D02*
D03*
X577859Y257814D02*
D03*
X583390Y257501D02*
D03*
X588930D02*
D03*
X594470D02*
D03*
X600010D02*
D03*
X605550D02*
D03*
X611090D02*
D03*
X616630D02*
D03*
X622170D02*
D03*
X627710D02*
D03*
X633250D02*
D03*
X638790D02*
D03*
X644330D02*
D03*
X649870D02*
D03*
X655410D02*
D03*
X660950D02*
D03*
X666490D02*
D03*
X672030D02*
D03*
X677565Y257732D02*
D03*
X680521Y262418D02*
D03*
Y267958D02*
D03*
Y273498D02*
D03*
Y279038D02*
D03*
Y284578D02*
D03*
Y290118D02*
D03*
Y295658D02*
D03*
Y301198D02*
D03*
Y306738D02*
D03*
Y312278D02*
D03*
Y317818D02*
D03*
Y323358D02*
D03*
Y328898D02*
D03*
Y334438D02*
D03*
Y345518D02*
D03*
Y351058D02*
D03*
Y356598D02*
D03*
Y362138D02*
D03*
Y367678D02*
D03*
Y373218D02*
D03*
Y378758D02*
D03*
Y384298D02*
D03*
Y389838D02*
D03*
Y395378D02*
D03*
X677978Y400300D02*
D03*
X333201Y322994D02*
D03*
X271272Y326294D02*
D03*
X331614Y312006D02*
D03*
X302353Y312078D02*
D03*
X281178Y310642D02*
D03*
X299389Y323066D02*
D03*
X271018Y331216D02*
D03*
X326075Y312125D02*
D03*
X286004Y312166D02*
D03*
X271272Y315976D02*
D03*
X271526Y310896D02*
D03*
X271018Y336756D02*
D03*
X271272Y320754D02*
D03*
X296813Y312078D02*
D03*
X304929Y323066D02*
D03*
X293849D02*
D03*
X276606Y310642D02*
D03*
X313433Y312078D02*
D03*
X288309Y323066D02*
D03*
X286258Y327660D02*
D03*
X307893Y312078D02*
D03*
X291273D02*
D03*
D50*
X548640Y385572D02*
D03*
X605536Y389890D02*
D03*
X618490Y377698D02*
D03*
X444754Y315468D02*
D03*
D51*
X399034Y370840D02*
D03*
X411734D02*
D03*
X424434D02*
D03*
X437134D02*
D03*
X449834D02*
D03*
X347218Y371094D02*
D03*
X372618D02*
D03*
X359918D02*
D03*
M02*
