M48
;Layer_Color=9474304
;FILE_FORMAT=4:4
METRIC,LZ
;TYPE=PLATED
T01F00S00C0.2000
T02F00S00C1.0200
%
T01
X00257941Y00260685
X00257755Y00266222
Y00271762
Y00277302
Y00282842
Y00288382
Y00293922
Y00299462
Y00305002
Y00310542
Y00316082
Y00321622
Y00327162
X0025781Y00331978
Y00336804
X00264414
X00271018Y00336756
Y00331216
X00271272Y00326294
Y00320754
Y00315976
X00271526Y00310896
X00276606Y00310642
X00281178
X00286004Y00312166
X00291273Y00312078
X00296813
X00302353
X00307893
X00313433
X0031115Y003048
X0029845
X0028575
X0027305
X002794Y002921
X002921
X003048
X003175
X00325628Y00293624
Y00303022
X00326075Y00312125
X00331614Y00312006
X00333201Y00322994
X0032385Y003302
X00321818Y00339344
Y0034417
Y0034971
Y0035525
Y0036079
Y0036633
Y0037187
Y00376936
Y00381762
Y00386842
X00321564Y00391414
Y00395986
X003302Y003937
X003429
X003556
X00379321Y00379321
X00384422Y00375063
X0038862Y00362712
X00366776Y00361442
X00361442Y00353314
X003429Y00351028
X00334264
X0033401Y00359918
X00345186
X003175Y00336804
X00311658
X00306118
X00300578
X00295038
X0029845Y003302
X00299389Y00323066
X00304929
X00293849
X00288309
X00286258Y0032766
X0031115Y003302
Y002794
X0032385
X0033655
X00343154Y00287528
X003429Y002667
X0034798Y00268732
X00345574Y00257501
X00340034
X00334494
X00328954
X00323414
X00317874
X00312334
X00306794
X00301254
X00295714
X00290174
X00284634
X00279094
X00273554
X00268014
X00262474
X002667Y002667
X002794
X002921
X003048
X003175
X003302
X00351114Y00257501
X00356654
X00362194
X00367734
X00373274
X00378814
X00384354
X00389894
X00395434
X00382016Y00263652
X00362966Y00290576
X00374904Y0031496
X00385064
Y0032512
X00395224
Y0031496
Y0033528
X00385064
X00374904
Y0032512
X002667Y003175
Y002921
X0027305Y002794
X004064Y002667
X00406514Y00257501
X00400974
X00412054
X00417594
X00423134
X00428674
X00434086
X00439367
X00444907
X00450447
X00455987
X00461527
X00467067
X00472607
X00478147
X00483687
X00489227
X00494767
X00500307
X00505847
X00511387
X00516927
X00522467
X00528007
X00533547
X00539087
X00544627
X00550167
X00555707
X00561247
X00566787
X00572327Y00257526
X00577859Y00257814
X0058339Y00257501
X0058893
X0059447
X0060001
X0060555
X0061109
X0061663
X0062217
X0062771
X0063325
X0063879
X0064433
X0064987
X0065541
X0066095
X0066649
X0067203
X00677565Y00257732
X00680521Y00262418
Y00267958
Y00273498
Y00279038
Y00284578
Y00290118
Y00295658
Y00301198
Y00306738
Y00312278
Y00317818
Y00323358
Y00328898
Y00334438
X00680466Y00339598
X00680521Y00345518
Y00351058
Y00356598
Y00362138
Y00367678
Y00373218
Y00378758
Y00384298
Y00389838
Y00395378
X006731Y003937
X006604
X006477
X00635
X00638302Y00385826
X00622554Y0038735
X006223Y003937
X0061595Y0038989
X00592328Y00390398
X00588949Y00374473
X00579628Y00373888
X00569468
X00572262Y00349504
X0057785
X00575056Y00345186
X0059563Y00344678
X0060071
Y0034925
X00595922Y00349476
X00613664Y00349504
X00619252Y0034925
X00615696Y00345186
X00611124Y0034544
X00617474Y00338836
X00629158Y00350774
X0063373
X00638302
X00646938Y00368808
X006604Y003683
X006731
X0059944Y00373888
Y00332994
X00597916Y0031369
X00602488Y00296672
X00585751Y00291946
X00585978Y00267716
X00595884Y00267462
X00575818Y00266192
X00560832
X00546354Y00267462
X0053594Y00267716
X00526796
X00506222Y0026797
X00495283Y00292209
X00488442Y00288091
X00470786Y00295308
X00471424Y00305054
X0046355Y003048
X00470662Y00313182
X00487172Y00312928
X00489458Y00321056
X00488696Y0032893
X00512064Y0032766
X00511048Y00312928
X00513334Y003048
Y00296926
X00526796Y00303784
X00541274Y00304546
X00544068Y00292608
X00560746Y0031229
Y0032004
X00553246
X00560746Y0032779
X00571246
Y0032004
X0057869Y00320031
X00571246Y0031229
X00534924Y00340106
X00517652Y00351028
X00507492Y00351536
X00502412Y00346202
X00499618Y00359156
Y00363728
X00495046Y00359156
X0048006Y00357632
X00471932Y00357124
X00466598
X00461264
X00451866Y00355092
X0044196Y00355346
X0042545Y00357886
X00405892Y00361442
X00399542Y00358394
X00399034Y00384398
X00405384
X00416052
X00425704
X00449834Y0038735
X004445Y003937
X004572
X004699
X00470662Y00383794
X0046101Y00383286
X004826Y003937
X00500888Y00388874
Y00381762
X00510032Y00388874
X005207Y003937
X005334
X00470408Y00350774
X00418846Y00341376
X00423672Y00314706
X00424942Y00290068
X0041021Y00289814
X0044958Y00288544
X00449834Y00298704
X004572Y002921
X00459232Y0028448
X00451866Y00267462
X00440944Y0026924
X006223Y002667
X0062357Y00400304
X00628869Y00400613
X00634409
X00639949
X00645489
X00651029
X00656569
X00662109
X00667649
X00673354Y00400304
X00677978Y004003
X00617789Y00400613
X00612249
X00606709
X00601169
X00595629
X00590089
X00584549
X00579009
X00573469
X00567929
X00562389
X00556849
X00551309
X00545769
X00540229
X00534689
X00529149
X00523609
X00518069
X00512529
X00506989
X00501449
X00496062Y00400558
X00490369Y00400613
X00484829
X00479289
X00473749
X00468209
X00462669
X00457129
X00451589
X00446049
X00440509
X00434969
X00429429
X00423889
X00418349
X00412809
X00407269
X00401729
X00396189
X00390649
X00385109
X00379569
X00374029
X00368489
X00362949
X00357409
X00351869
X00346329
X00340789
X00335788Y00400558
X00330962
X0032639
X00321564
T02
X00663983Y0027558
Y0030098
X00663729Y00331714
Y00357114
Y00382514
M30
